<svg xmlns="http://www.w3.org/2000/svg">
  <symbol viewBox="0 0 50 50" id="s">
    <path fill-rule="evenodd" clip-rule="evenodd" d="M24.989,50c-0.337,0-0.673-0.112-0.95-0.338c-0.65-0.527-15.948-13.108-17.187-29.376
	c-0.075-0.638-0.116-1.339-0.116-2.022C6.736,8.193,14.925,0,24.989,0c10.076,0,18.274,8.193,18.274,18.264
	c0,0.626-0.041,1.287-0.133,2.079c-1.222,16.211-16.54,28.793-17.191,29.322C25.663,49.888,25.326,50,24.989,50z M24.989,3.019
	c-8.399,0-15.234,6.839-15.234,15.245c0,0.576,0.033,1.143,0.102,1.734c0.976,12.798,11.825,23.507,15.132,26.493
	c3.312-2.988,14.178-13.707,15.138-26.433c0.082-0.732,0.117-1.285,0.117-1.794C40.244,9.858,33.401,3.019,24.989,3.019z
	 M24.989,29.217c-6.033,0-10.942-4.914-10.942-10.953c0-6.034,4.909-10.943,10.942-10.943c6.039,0,10.952,4.909,10.952,10.943
	C35.941,24.303,31.028,29.217,24.989,29.217z M24.989,10.34c-4.369,0-7.923,3.554-7.923,7.924c0,4.375,3.554,7.935,7.923,7.935
	c4.374,0,7.933-3.559,7.933-7.935C32.922,13.894,29.363,10.34,24.989,10.34z" />
  </symbol>
</svg>