<svg xmlns="http://www.w3.org/2000/svg">
  <symbol viewBox="0 0 50 50" id="s">
    <path fill-rule="evenodd" clip-rule="evenodd" d="M45.921,11.819c-0.936-0.937-2.454-0.937-3.392,0l-3.147,3.147c-3.083-3.291-7.212-5.574-11.856-6.324v-4.22
	h0.533c0.443,0,0.799-0.356,0.799-0.799V0.799C28.857,0.358,28.502,0,28.059,0h-7.716c-0.444,0-0.799,0.358-0.799,0.799v2.825
	c0,0.443,0.355,0.799,0.799,0.799h0.535v4.869c0,0.015,0.007,0.028,0.008,0.043c0.001,0.026-0.008,0.05-0.005,0.076
	c0.006,0.054,0.034,0.098,0.05,0.147c0.008,0.021,0.013,0.043,0.022,0.063c0.038,0.086,0.09,0.161,0.153,0.228
	c0.004,0.003,0.006,0.006,0.009,0.01c0.171,0.173,0.407,0.278,0.659,0.244c0.044-0.005,0.088-0.007,0.132-0.012h4.526
	c4.649,0.54,8.787,2.748,11.821,6.005L24.458,29.889l-4.732-4.731c-0.936-0.938-2.455-0.938-3.392,0
	c-0.938,0.937-0.938,2.454,0,3.393l6.428,6.427c0.469,0.469,1.083,0.704,1.696,0.704c0.614,0,1.229-0.235,1.697-0.704l14.951-14.95
	c1.479,2.722,2.321,5.839,2.321,9.15c0,10.6-8.624,19.224-19.226,19.224S4.976,39.776,4.976,29.177
	c0-6.318,3.078-12.172,8.25-15.775l1.073,2.397c0.116,0.26,0.362,0.44,0.647,0.468c0.028,0.003,0.056,0.004,0.083,0.004
	c0.255,0,0.497-0.121,0.648-0.33l3.97-5.487c0.166-0.231,0.197-0.535,0.081-0.795C19.61,9.399,19.364,9.22,19.08,9.189l-6.736-0.693
	c-0.279-0.022-0.563,0.097-0.731,0.328c-0.166,0.231-0.198,0.534-0.081,0.793l1.029,2.298C6.806,15.802,3.376,22.23,3.376,29.177
	C3.376,40.659,12.719,50,24.201,50c11.481,0,20.825-9.341,20.825-20.823c0-3.753-1.013-7.269-2.758-10.313l3.652-3.652
	C46.858,14.274,46.858,12.755,45.921,11.819z M25.926,8.439c-0.57-0.047-1.143-0.087-1.725-0.087c-0.266,0-0.532,0.015-0.798,0.025
	V4.423h2.523V8.439z M27.259,2.823h-0.532h-4.65V1.6h5.182V2.823z M21.143,1.6h0.134v1.224h-0.134V1.6z M22.604,4.423V8.42
	c-0.043,0.003-0.085,0.008-0.128,0.012v-4.01H22.604z M17.537,10.639l-2.345,3.242l-1.637-3.652L17.537,10.639z" />
  </symbol>
</svg>