
      <svg xmlns="http://www.w3.org/2000/svg">
        <symbol id="s" viewBox="0 0 100 100">
          

<g>
	<g>
		<path  d="M50,100C22.4,100,0,77.6,0,50S22.4,0,50,0s50,22.4,50,50S77.6,100,50,100z M50,8.6C27.2,8.6,8.6,27.2,8.6,50
			S27.2,91.4,50,91.4S91.4,72.8,91.4,50S72.8,8.6,50,8.6z M63.2,68.8c-1,0-2-0.4-2.8-1L44.6,54.4c-1-0.8-1.6-2-1.6-3.4V27.4
			c0-2.4,2-4.4,4.4-4.4s4.4,2,4.4,4.4V49L66,61c1.8,1.6,2,4.2,0.6,6.2C65.6,68.2,64.4,68.8,63.2,68.8z"/>
	</g>
</g>

        </symbol>
      </svg>
    