
      <svg xmlns="http://www.w3.org/2000/svg">
        <symbol id="s" viewBox="0 0 100 182.8">
          

<g>
	<path  d="M49.8,51.8c6.4,0,11.6-5.2,11.6-11.6c0-6.4-5.2-11.6-11.6-11.6c-6.4,0-11.6,5.2-11.6,11.6
		C38.2,46.6,43.4,51.8,49.8,51.8z M49.8,33c4,0,7.3,3.3,7.3,7.2c0,4-3.3,7.2-7.3,7.2c-4,0-7.2-3.3-7.2-7.2
		C42.6,36.2,45.8,33,49.8,33z"/>
	<path  d="M100,104.3H81.1L68.6,57.6c4.3-4.5,7-10.7,7-17.4c0-11.6-9.6-21.6-19.1-24.5V0h-13v15.7
		C34,18.6,24.4,28.6,24.4,40.2c0,6.5,2.5,12.5,6.6,17l-12.6,47.2H0v13h14.8l-6.5,24.2c-0.8,2.8-0.4,5.7,1.1,8.3
		c0.2,0.4,0.5,0.7,0.7,1.1l-1.6,31.8l14.5-28.3c0.4-0.2,0.8-0.4,1.2-0.6c2.5-1.5,4.3-3.8,5.1-6.6l8-29.9h24.8l8,29.9
		c0.8,2.8,2.5,5.2,5.1,6.6c0.4,0.2,0.8,0.4,1.2,0.6l14.5,28.3L89.3,151c0.3-0.3,0.5-0.7,0.7-1.1c1.5-2.5,1.8-5.4,1.1-8.2l-6.5-24.2
		H100V104.3z M46.1,19.5l1.7-0.4V4.3h4.3v14.8l1.7,0.4c8.2,1.7,17.3,10.6,17.3,20.7c0,11.6-9.6,21-21.3,21c-11.7,0-21.2-9.4-21.2-21
		C28.8,30.2,37.9,21.3,46.1,19.5z M58.6,104.3H40.8l8.9-33.2L58.6,104.3z M14.3,154.3c0.5,0.2,1.1,0.5,1.7,0.6
		c0.6,0.2,1.2,0.2,1.8,0.3l-3.9,7.6L14.3,154.3z M81.6,155.3c0.6-0.1,1.2-0.2,1.8-0.3c0.6-0.2,1.1-0.4,1.7-0.6l0.4,8.5L81.6,155.3z
		 M95.7,113H78.9l8,29.7c0.5,1.7,0.2,3.4-0.7,4.9c-0.9,1.5-2.3,2.6-4,3c-1.7,0.4-3.4,0.2-5-0.7c-1.5-0.9-2.6-2.3-3-4L65.4,113H34
		l-8.9,33.1c-0.9,3.5-4.5,5.5-8,4.6c-1.7-0.5-3.1-1.5-4-3c-0.9-1.5-1.1-3.3-0.6-5l8-29.7H4.3v-4.3h17.3l12.9-48.2
		c3.5,2.6,7.7,4.4,12.2,4.9l-11.6,43.3h29.1L52.7,65.4c4.5-0.5,8.7-2.1,12.3-4.7l12.8,47.9h17.9V113z"/>
</g>

        </symbol>
      </svg>
    