
      <svg xmlns="http://www.w3.org/2000/svg">
        <symbol id="s" viewBox="0 0 100 100">
          

<g>
	<path  d="M89.8,20l4.3-4.3l-18.5-5.1l5.1,18.5l4.3-4.3c12.4,16.7,10.9,40.5-4.3,55.7c-12.2,12.2-30.4,16-46.3,9.6
		l-2.5,6.3c6.1,2.3,12.4,3.5,18.5,3.5c12.9,0,25.6-5.1,35.2-14.7C103.2,67.3,104.7,39.2,89.8,20z"/>
	<path  d="M45.4,72.4l3,1.3h0.3H49L70.3,64c0.3,0,0.5-0.3,0.5-0.5V45.8h0.8c0.3,0,0.5-0.3,0.5-0.5c0.3-0.3,0.3-0.5,0-0.8
		L59.6,28.9c0-0.3-0.3-0.3-0.5-0.3H35.3c-0.3,0-0.5,0-0.5,0.3l-8.9,14.4c0,0,0,0.3,0,0.5c0,0.3,0.3,0.5,0.5,0.5l2,0.5V64
		c0,0.3,0.3,0.5,0.5,0.5l9.6,4.8c0.3,0.3,0.5,0,0.8,0c0.3,0,0.3-0.3,0.3-0.5V58.5l5.3,1.5v11.9C44.9,72.1,45.2,72.4,45.4,72.4z
		 M27.7,43.5l8.1-13.4h23l0.3,0.3h-0.3c-0.3,0-0.5,0-0.5,0.3L47.7,47.8l-18.5-4.1L27.7,43.5z M39.1,56.7c-0.3,0-0.5,0-0.5,0.3
		c-0.3,0-0.3,0.3-0.3,0.5v10.4L30,63.8V45.3l18,4.1c0.3,0,0.3,0,0.3,0c0.3,0,0.3,0,0.3,0l0.3-0.3l10.4-17l10.4,13.4v17.7l-20.8,9.1
		l-2.3-1V59.5c0-0.5-0.3-0.8-0.5-0.8L39.1,56.7z"/>
	<path  d="M23.7,88.9l-5.1-18.5l-3.8,3.8C3.4,57.5,4.9,34.4,19.9,19.5C32,7.3,50,3.8,66.2,9.9l2.5-6.3
		c-18.5-7.3-39.5-3-53.7,11.1C-2.7,32.1-4.2,59.5,9.7,79l-4.8,4.8L23.7,88.9z"/>
</g>

        </symbol>
      </svg>
    