<svg xmlns="http://www.w3.org/2000/svg">
  <symbol viewBox="0 0 50 50" id="s">
    <path fill-rule="evenodd" clip-rule="evenodd" d="M46.234,10.714H3.765C1.686,10.714,0,12.4,0,14.479v21.041c0,2.08,1.686,3.766,3.765,3.766h42.469
	c2.08,0,3.766-1.686,3.766-3.766V14.479C50,12.4,48.314,10.714,46.234,10.714z M40.644,13.571l-15.357,9.312l-15.36-9.312H40.644z
	 M47.143,35.521c0,0.502-0.405,0.908-0.908,0.908H3.765c-0.501,0-0.908-0.406-0.908-0.908V14.479c0-0.502,0.407-0.908,0.908-0.908
	h0.65l20.13,12.205c0.227,0.138,0.484,0.207,0.741,0.207c0.256,0,0.513-0.069,0.74-0.207l20.127-12.205h0.081
	c0.503,0,0.908,0.406,0.908,0.908V35.521z" />
  </symbol>
</svg>