<svg xmlns="http://www.w3.org/2000/svg">
  <symbol viewBox="0 0 100 100" id="s">
	<path class="st0" d="M78.7,75.3c-0.4-0.2-0.6-0.4-1-0.8c-0.2,1.4-0.6,2.8-1.2,4c0,0.2-0.2,0.2-0.4,0.2l0,0c-0.2,0-0.2,0-0.4-0.2
		s-0.2-0.4-0.4-0.6c-0.2,0.4-0.4,0.6-0.6,1h4v-3.8l0,0C78.9,75.5,78.9,75.5,78.7,75.3z"/>
		<polygon class="st0" points="21.2,11.6 29.5,11.6 29.5,3.6"/>
		<path class="st0" d="M48.5,76.9c-0.2,0-0.2-0.2-0.2-0.4s0-0.2,0.2-0.4s0.4-0.2,0.6-0.4c-0.8-0.4-1.6-1-2.4-1.6
			c-0.2,0-0.2-0.2-0.2-0.4c0-0.2,0.2-0.2,0.2-0.4c0.4-0.2,0.8-0.4,1-0.4c-1-1-2-2-2.8-3.2c0-0.2,0-0.2,0-0.4c0-0.2,0.2-0.2,0.4-0.2
			s0.4,0,0.6-0.2c-0.6-0.8-1-1.6-1.4-2.4c0-0.2,0-0.2,0-0.4c0-0.2,0.2-0.2,0.4-0.2c0.4,0,0.8,0,1.2,0c-0.6-1.2-1-2.6-1.4-4
			c0-0.2,0-0.2,0.2-0.4c0.2,0,0.2-0.2,0.4,0c0.2,0,0.4,0.2,0.6,0.2c-0.2-1-0.2-1.8-0.4-2.8c0-0.2,0-0.2,0.2-0.4s0.2,0,0.4,0
			c0.4,0.2,0.8,0.4,1,0.4c0-1.4,0-2.8,0.4-4.2c0-0.2,0.2-0.2,0.2-0.2c0.2,0,0.2,0,0.4,0c0.2,0.2,0.4,0.2,0.6,0.4
			c0.2-1,0.6-1.8,0.8-2.8c0-0.2,0.2-0.2,0.4-0.2s0.2,0,0.4,0.2c0.2,0.2,0.6,0.6,0.8,0.8c0.6-1.2,1.2-2.6,2-3.6c0-0.2,0.2-0.2,0.4-0.2
			s0.2,0,0.4,0.2c0,0.2,0.2,0.4,0.2,0.6c0.6-0.8,1.2-1.4,2-2.2c0.2,0,0.2-0.2,0.4,0c0.2,0,0.2,0.2,0.2,0.2c0.2,0.4,0.2,0.8,0.4,1.2
			c1-1,2.2-1.8,3.4-2.6c0.2,0,0.2,0,0.4,0c0.2,0,0.2,0.2,0.2,0.4s0,0.4,0,0.6c0.8-0.4,1.8-0.8,2.6-1.2c0.2,0,0.2,0,0.4,0
			s0.2,0.2,0.2,0.4c0,0.4,0,0.8-0.2,1.2c1.4-0.4,2.8-0.8,4.2-1c0.2,0,0.2,0,0.4,0.2c0,0.2,0,0.2,0,0.4s-0.2,0.4-0.2,0.6
			c1,0,2,0,2.8,0c0.2,0,0.2,0,0.4,0.2c0,0.2,0,0.2,0,0.4c-0.2,0.4-0.4,0.6-0.6,1c1.4,0.2,2.8,0.4,4.2,0.8c0.2,0,0.2,0.2,0.2,0.2
			c0,0.2,0,0.2-0.2,0.4c-0.2,0.2-0.4,0.4-0.4,0.4c1,0.4,1.8,0.6,2.6,1.2c0.2,0,0.2,0.2,0.2,0.4s0,0.2-0.2,0.4c-0.4,0.2-0.6,0.4-1,0.6
			c0.8,0.4,1.4,0.8,2.2,1.4V2H31.5v10.6c0,0.6-0.4,1-1,1H19.8v65.5h31.9l0.2-1C50.8,78.1,49.5,77.5,48.5,76.9z"/>
		<g>
			<path class="st1" d="M81.9,65.1c0.2,0,0.2,0,0.4-0.2c0-0.2,0-0.2,0-0.4c-0.4-0.8-0.8-1.4-1.2-2.2v-1.8c0,0,0,0,0.2,0
				c0.2,0,0.2-0.2,0.4-0.2c0-0.2,0-0.2,0-0.4c-0.2-0.2-0.2-0.4-0.4-0.4V1c-0.2-0.6-0.6-1-1.2-1H30.7c-0.4,0-0.6,0-1,0.2L19,11l-1,1
				l0,0c-0.2,0.2-0.2,0.2-0.2,0.2s0,0,0,0.2v0.2l0,0v67.7c0,0.6,0.4,1,1,1h32.5l0.4-1.6l0.2,0.2c0.2,0,0.4,0,0.6,0.2l-3.8,17.1
				l6.2-0.6l0,0h0.2l5.4,3l3.6-16.7c0.4-0.2,0.6-0.2,1-0.4l-2,9.4l1.4,8l5.4-2.8h0.2l6,0.8L73,79.5c0.2,0.2,0.4,0.6,0.4,0.8
				c0,0.2,0.2,0.2,0.4,0.2l0,0H74v0.4h6c0.6,0,1-0.4,1-1V67.7c0.2,0,0.4,0,0.4,0.2l0,0l0,0c0.2,0,0.4-0.2,0.4-0.4v-0.2
				c-0.2-1-0.6-1.8-0.8-2.6C81.3,65.1,81.5,65.1,81.9,65.1L81.9,65.1z M80.1,71.5c-0.2,0-0.2-0.2-0.4-0.2c0-1-0.2-2-0.4-3
				c0-0.2-0.2-0.4-0.4-0.4c-2-0.2-3.8-0.4-5.8-0.8c0-0.2,0.2-0.4,0.2-0.8c2,0.4,4.2,0.8,6.2,1.2C79.9,69.1,80.1,70.3,80.1,71.5z
				M78.7,68.9c0.4,1.8,0.4,3.6,0.2,5.4c-2-1.6-4.2-3.2-6.4-4.6c0.2-0.6,0.6-1,0.8-1.6C74.8,68.5,76.7,68.7,78.7,68.9z M76.5,74.1
				c-1.8-1-3.4-2-5-3c0.2-0.2,0.2-0.4,0.4-0.6c1.8,1.2,3.6,2.4,5.2,3.6c-0.2,1.2-0.6,2.4-1,3.6c0-0.2-0.2-0.2-0.2-0.4
				c0.4-1,0.6-2,0.8-2.8C76.7,74.5,76.7,74.3,76.5,74.1z M69.6,81.5c0.8-0.8,1.4-1.4,2-2.2c0.2-0.2,0-0.4,0-0.4
				c-1.2-1.6-2.4-3.2-3.4-4.8c0.2-0.2,0.4-0.2,0.6-0.4c1.2,1.8,2.2,3.6,3.4,5.6c-0.6,1-1.4,2-2.4,2.8C69.8,81.7,69.6,81.5,69.6,81.5z
				M66.8,82.7c-0.2-2.6-0.6-5.4-1-8c0.6-0.2,1.2-0.4,1.6-0.6c1,1.6,2.2,3.2,3.4,4.8C69.8,80.3,68.4,81.7,66.8,82.7z M63.2,74.3
				c-5.2,0-9.2-4.2-9.2-9.2c0-5.2,4.2-9.2,9.2-9.2c5.2,0,9.2,4.2,9.2,9.2C72.6,70.1,68.4,74.3,63.2,74.3z M55.4,81.1
				c0-0.2,0.2-0.2,0.2-0.4c0.4,0,0.8,0,1.2,0c0.6,0,1.2,0,1.8-0.2c0.2,0,0.4-0.2,0.4-0.4c0.4-2,0.8-3.8,1.4-5.8
				c0.2,0,0.4,0.2,0.8,0.2c-0.6,2-1.2,4.2-1.8,6.2C57.8,81.1,56.6,81.3,55.4,81.1z M49.7,76.3c0.8,0.4,1.8,0.8,2.8,1.2c0,0,0,0,0.2,0
				s0.2,0,0.4-0.2c1-1.6,2.4-3.2,3.6-4.8c0.2,0.2,0.4,0.4,0.6,0.4c-1.4,1.6-2.8,3.2-4.2,4.8C52,77.3,50.8,76.9,49.7,76.3
				C49.5,76.5,49.7,76.3,49.7,76.3z M46.5,69.9c0.6,0.8,1.2,1.6,2,2.2l0.2,0.2h0.2c1.6-1,3.4-2,5.2-2.8c0.2,0.2,0.2,0.4,0.4,0.6
				c-1.8,1-3.8,1.8-5.8,2.6c-1-0.8-1.8-1.6-2.6-2.8C46.1,69.9,46.3,69.9,46.5,69.9z M48.5,59.2c1.8,0.6,3.6,1.2,5.4,1.8
				c0,0.2-0.2,0.4-0.2,0.6c-2-0.8-3.8-1.6-5.6-2.4c0-1.2,0-2.6,0.2-3.8c0.2,0,0.2,0.2,0.4,0.2c-0.2,1-0.2,2-0.2,3
				C48.3,59,48.5,59.2,48.5,59.2z M67.8,48.4c-1,0.2-2,0.4-3,0.6c-0.2,0-0.2,0.2-0.2,0.4c0,1.8,0,3.6,0,5.6c-0.2,0-0.4,0-0.8,0
				c0.2-2,0.2-4,0.6-6c1.2-0.4,2.4-0.8,3.6-1C67.8,48,67.8,48.2,67.8,48.4z M74.2,51.6c-1-0.2-2-0.4-3-0.6c-0.2,0-0.4,0-0.4,0.2
				c-0.6,1.8-1.6,3.4-2.4,5C68.2,56,68,56,67.8,55.8c1-1.8,1.8-3.6,3-5.4c1.2,0,2.4,0.2,3.8,0.6C74.4,51.4,74.2,51.4,74.2,51.6z
				M78.9,57.2c-0.8-0.6-1.6-1.2-2.4-1.8c-0.2,0-0.4,0-0.4,0c-1.4,1.4-2.8,2.6-4.2,3.8c-0.2-0.2-0.2-0.4-0.4-0.6
				c1.6-1.2,3.2-2.6,5-3.6c1,0.6,2.2,1.2,3.2,2C79.1,57,78.9,57,78.9,57.2z M70.6,58c-0.4-0.4-1-0.8-1.4-1.2c0.8-1.6,1.6-3.2,2.4-5
				c1.8,0.2,3.6,0.8,5.2,1.6C74.6,54.8,72.6,56.4,70.6,58z M67,55.6c-0.6-0.2-1.2-0.4-1.8-0.6c0.2-1.8,0.2-3.6,0.2-5.4
				c1.8-0.6,3.6-0.8,5.4-0.6C69.4,51.2,68.2,53.4,67,55.6z M62.8,54.8c-0.6,0-1.2,0.2-2,0.2c-0.6-1.6-1.4-3.4-2-5
				c1.4-1.2,3-2.2,4.8-2.8C63.2,49.8,63,52.4,62.8,54.8z M58,49.8c0,0.2,0,0.2,0,0.4c0.8,1.6,1.6,3.4,2.2,5c-0.2,0-0.4,0.2-0.6,0.2
				c-0.8-1.8-1.4-3.8-2-5.8c0.8-0.8,1.8-1.6,3-2.4c0,0.2,0,0.2,0,0.4C59.6,48.6,58.8,49.2,58,49.8z M58.8,56c-0.6,0.2-1.2,0.6-1.6,1
				c-1.2-1.2-2.6-2.6-4-3.6c0.8-1.6,1.8-3.2,3.2-4.4C57,51.2,57.8,53.6,58.8,56z M52.2,53.2c0,0.2,0,0.4,0.2,0.4
				c1.4,1.2,2.8,2.4,4,3.8c-0.2,0.2-0.4,0.4-0.6,0.6c-1.4-1.4-2.8-3-4.2-4.4c0.4-1.2,1-2.2,1.8-3.4c0,0.2,0.2,0.2,0.2,0.4
				C53.2,51.4,52.6,52.4,52.2,53.2z M55.4,58.6c-0.4,0.4-0.8,1-1,1.6c-1.6-0.6-3.4-1.2-5.2-1.8c0-1.8,0.4-3.6,1-5.4
				C51.8,55,53.6,56.8,55.4,58.6z M53.6,62.5c-0.2,0.6-0.2,1.2-0.2,1.8c-1.8,0-3.8,0.2-5.6,0.4c-0.8-1.6-1.2-3.4-1.2-5.4
				C48.7,60.6,51.2,61.6,53.6,62.5z M46.9,65.5c0,0.2,0.2,0.2,0.4,0.2l0,0c1.8-0.2,3.8-0.4,5.8-0.4c0,0.2,0,0.4,0,0.8
				c-2,0.2-4.2,0.2-6.2,0.2c-0.6-1.2-1-2.2-1.2-3.6c0.2,0,0.2,0,0.4,0.2C46.3,63.7,46.5,64.5,46.9,65.5z M53.4,66.7
				c0.2,0.6,0.2,1.2,0.4,1.8c-1.6,0.8-3.4,1.8-5,2.8c-1.4-1.2-2.4-2.8-3.4-4.4C48.1,66.9,50.8,66.9,53.4,66.7z M55,70.7
				c0.4,0.4,0.8,1,1.2,1.4c-1.2,1.4-2.4,3-3.4,4.6c-1.6-0.6-3.4-1.4-4.8-2.6C50.2,72.9,52.6,71.9,55,70.7z M58,73.5
				c0.4,0.4,1,0.6,1.6,0.8c-0.6,1.8-1,3.8-1.4,5.6c-1.8,0.2-3.6,0-5.4-0.4C54.6,77.5,56.2,75.5,58,73.5z M59.4,82.5
				c1-2.4,1.6-5,2.4-7.6c0.6,0,1,0.2,1.6,0.2h0.2c0.2,2,0.6,3.8,1,5.8C63,81.7,61.2,82.3,59.4,82.5z M72,59.8
				c1.4-1.2,2.8-2.4,4.2-3.6c1.6,1,3,2.2,4.2,3.6c-2.6,0.4-5,1-7.6,1.8C72.6,61,72.4,60.4,72,59.8z M29.5,3.6v8.2h-8.2L29.5,3.6z
				M51.6,79.3L51.6,79.3H19.6V13.9h10.6c0.6,0,1-0.4,1-1V2h47.4v53.6c-0.6-0.6-1.4-1-2.2-1.4c0.4-0.2,0.6-0.4,1-0.6
				c0.2,0,0.2-0.2,0.2-0.4s0-0.2-0.2-0.4c-0.8-0.4-1.8-0.8-2.6-1.2c0.2-0.2,0.4-0.4,0.4-0.4c0.2,0,0.2-0.2,0.2-0.4s-0.2-0.2-0.2-0.2
				c-1.4-0.4-2.8-0.8-4.2-0.8c0.2-0.4,0.4-0.6,0.6-1c0-0.2,0-0.2,0-0.4c0-0.2-0.2-0.2-0.4-0.2c-1,0-2,0-2.8,0c0-0.2,0.2-0.4,0.2-0.6
				c0-0.2,0-0.2,0-0.4S68.4,47,68.2,47c-1.4,0.2-2.8,0.4-4.2,1c0-0.4,0-0.8,0.2-1.2c0-0.2,0-0.2-0.2-0.4c-0.2,0-0.2-0.2-0.4,0
				c-1,0.4-1.8,0.8-2.6,1.2c0-0.2,0-0.4,0-0.6c0-0.2,0-0.2-0.2-0.4c-0.2,0-0.2,0-0.4,0c-1.2,0.6-2.4,1.6-3.4,2.6
				c-0.2-0.4-0.2-0.8-0.4-1.2c0-0.2-0.2-0.2-0.2-0.2c-0.2,0-0.2,0-0.4,0c-0.8,0.6-1.4,1.4-2,2.2c0-0.2-0.2-0.4-0.2-0.6
				c0-0.2-0.2-0.2-0.4-0.2s-0.2,0-0.4,0.2c-0.8,1.2-1.6,2.4-2,3.6c-0.2-0.2-0.6-0.6-0.8-0.8c0-0.2-0.2-0.2-0.4-0.2s-0.2,0.2-0.4,0.2
				C48.9,53,48.7,54,48.5,55c-0.2-0.2-0.4-0.2-0.6-0.4c-0.2,0-0.2-0.2-0.4,0c-0.2,0-0.2,0.2-0.2,0.2c-0.4,1.4-0.4,2.8-0.4,4.2
				c-0.4-0.2-0.8-0.4-1-0.4s-0.2,0-0.4,0s-0.2,0.2-0.2,0.4c0,1,0.2,2,0.4,2.8c-0.2,0-0.4-0.2-0.6-0.2c-0.2,0-0.2,0-0.4,0
				c-0.2,0-0.2,0.2-0.2,0.4c0.2,1.4,0.8,2.8,1.4,4c-0.4,0-0.8,0-1.2,0c-0.2,0-0.2,0-0.4,0.2c0,0.2,0,0.2,0,0.4c0.4,0.8,1,1.8,1.4,2.4
				c-0.2,0-0.4,0-0.6,0.2c-0.2,0-0.2,0.2-0.4,0.2c0,0.2,0,0.2,0,0.4c0.8,1.2,1.8,2.2,2.8,3.2c-0.4,0.2-0.8,0.4-1,0.4
				c-0.2,0-0.2,0.2-0.2,0.4c0,0.2,0,0.2,0.2,0.4c0.8,0.6,1.6,1.2,2.4,1.6c-0.2,0.2-0.4,0.2-0.6,0.4c-0.2,0-0.2,0.2-0.2,0.4
				c0,0.2,0,0.2,0.2,0.4c1,0.6,2.2,1.2,3.4,1.6c0.2,0,0.4,0.2,0.6,0.2C52.2,78.9,52,79.1,51.6,79.3z M62.4,83.1c0-0.2,0-0.2,0-0.4
				c1-0.4,1.8-0.8,2.8-1.2c0.2,0,0.2-0.2,0.2-0.4c-0.4-2-0.8-3.8-1.2-5.8c0.2,0,0.4,0,0.8-0.2c0.4,2.2,0.6,4.2,0.8,6.4
				C64.8,82.1,63.6,82.5,62.4,83.1z M73.6,79.7c-1.2-2.4-2.6-4.6-4-6.8c0.4-0.4,0.8-0.8,1.2-1.2c1.6,1,3.2,2,5,3
				C75.5,76.5,74.6,78.1,73.6,79.7z M79.1,79.3h-4c0.2-0.4,0.4-0.6,0.6-1c0.2,0.2,0.2,0.4,0.4,0.6c0,0.2,0.2,0.2,0.4,0.2l0,0
				c0.2,0,0.2-0.2,0.4-0.2c0.6-1.2,1-2.6,1.2-4c0.4,0.2,0.6,0.4,1,0.8h0.2l0,0v3.6H79.1z M73.4,65.7c0-0.2,0-0.6,0-0.8
				c0-0.4,0-0.6,0-1c1.8-0.4,3.6-1,5.4-1.6c1,1.4,1.8,3.2,2.4,5C78.5,66.7,75.9,66.1,73.4,65.7z M80.7,64.3c-0.4-1-1-1.8-1.6-2.6
				c-0.2-0.2-0.2-0.2-0.4-0.2c-1.8,0.6-3.6,1.2-5.4,1.6c0-0.2-0.2-0.4-0.2-0.8c2-0.6,4-1,6-1.4c0.8,1,1.4,2,2,3.2
				C81.1,64.3,80.9,64.3,80.7,64.3z"/>
			<path class="st1" d="M63.2,56.2c-4.8,0-8.6,3.8-8.6,8.6s3.8,8.6,8.6,8.6c4.8,0,8.6-3.8,8.6-8.6C72,60.2,68,56.2,63.2,56.2z
				M63.2,72.9c-4.4,0-7.8-3.6-7.8-7.8c0-4.4,3.6-7.8,7.8-7.8c4.4,0,7.8,3.6,7.8,7.8C71.2,69.3,67.6,72.9,63.2,72.9z"/>
		</g>
  </symbol>
</svg>