<svg xmlns="http://www.w3.org/2000/svg">
  <symbol viewBox="0 0 50 50" id="s">
    <path fill="none" d="M40.186,23.862c0.301,0.294,0.779,0.73,1.015,0.864l0.394,0.225l-0.886,1.293
		c0.094,0.315,0.272,0.964,0.408,1.733c0.658-2.418,1.175-4.855,1.181-4.888l0.08-0.377c-0.002,0-0.003,0.003-0.005,0.004
		L40.186,23.862z"/>
	<path fill="none" d="M37.235,22.712l0.08,0.377c0.007,0.032,0.523,2.474,1.184,4.894c0.135-0.772,0.313-1.424,0.406-1.738
		l-0.885-1.294l0.393-0.225c0.236-0.133,0.715-0.569,1.016-0.863l-2.188-1.146C37.238,22.716,37.237,22.713,37.235,22.712z"/>
	<path fill="none" d="M8.208,20.948c0.02,0.05,0.03,0.102,0.03,0.156v0.989l1.954,1.024l1.953-1.024v-0.989
		c0-0.054,0.011-0.106,0.031-0.156c0.257-0.639,0.542-1.438,0.557-1.608c0.017-0.192,0.165-0.35,0.356-0.377
		c0.135-0.018,0.266,0.027,0.357,0.12c0.252-0.401,0.421-1.417,0.341-1.842c-0.004,0.005-0.009,0.01-0.012,0.012
		c-0.115,0.143-0.309,0.192-0.476,0.126c-0.168-0.067-0.275-0.234-0.265-0.414c0-0.001,0.116-1.916,0.124-2.257
		c0.013-0.44-0.101-0.815-0.308-1.026c-0.112-0.115-0.245-0.176-0.384-0.176c-0.163,0-0.373-0.092-0.441-0.241
		c-0.018-0.036-0.55-1.059-2.16-0.853c-1.69,0.22-2.688,1.358-2.644,2.287c0.017,0.342,0.124,2.268,0.124,2.268
		c0.011,0.18-0.097,0.347-0.266,0.413c-0.167,0.065-0.358,0.016-0.475-0.126c-0.006-0.007-0.015-0.017-0.023-0.026
		c-0.078,0.385,0.096,1.451,0.356,1.86c0.093-0.086,0.22-0.132,0.347-0.113c0.191,0.027,0.347,0.173,0.365,0.366
		C7.667,19.51,7.952,20.31,8.208,20.948z"/>
	<path fill="none" d="M7.622,22.711l0.08,0.379c0.008,0.032,0.524,2.474,1.184,4.893c0.136-0.771,0.313-1.423,0.406-1.738
		l-0.884-1.293l0.394-0.224c0.234-0.135,0.713-0.569,1.015-0.864l-2.188-1.147C7.625,22.715,7.625,22.712,7.622,22.711z"/>
	<path fill="none" d="M37.821,20.948c0.02,0.05,0.031,0.102,0.031,0.156v0.989l1.954,1.024l1.954-1.024v-0.989
		c0-0.054,0.01-0.106,0.029-0.156c0.258-0.639,0.543-1.438,0.558-1.608c0.017-0.192,0.165-0.351,0.356-0.377
		c0.131-0.02,0.266,0.028,0.356,0.12c0.253-0.4,0.42-1.415,0.342-1.842c-0.005,0.005-0.01,0.01-0.012,0.012
		c-0.116,0.143-0.31,0.192-0.476,0.126c-0.169-0.067-0.275-0.234-0.265-0.414c0-0.001,0.115-1.916,0.123-2.257
		c0.013-0.44-0.101-0.815-0.308-1.026c-0.112-0.115-0.244-0.176-0.383-0.176c-0.164,0-0.374-0.092-0.442-0.241
		c-0.018-0.036-0.55-1.059-2.16-0.853c-1.689,0.22-2.688,1.358-2.644,2.287c0.018,0.341,0.126,2.268,0.126,2.268
		c0.011,0.18-0.098,0.347-0.267,0.413c-0.167,0.064-0.359,0.014-0.474-0.126c-0.009-0.007-0.016-0.017-0.025-0.026
		c-0.079,0.384,0.096,1.449,0.356,1.86c0.093-0.086,0.217-0.133,0.348-0.114c0.192,0.028,0.348,0.173,0.364,0.367
		C37.278,19.51,37.564,20.31,37.821,20.948z"/>
	<path fill="none" d="M25.117,23.737l2.614-1.37v-1.336c0-0.054,0.011-0.107,0.03-0.157c0.331-0.823,0.701-1.856,0.72-2.088
		c0.017-0.194,0.164-0.353,0.356-0.38c0.196-0.031,0.376,0.079,0.447,0.256c0.149-0.19,0.389-0.764,0.503-1.494
		c0.126-0.801,0.025-1.245-0.04-1.324c0.026,0.035-0.086,0.125-0.138,0.189c-0.115,0.141-0.31,0.19-0.476,0.125
		c-0.169-0.067-0.275-0.233-0.265-0.414c0-0.001,0.147-2.457,0.158-2.891c0.016-0.602-0.136-1.099-0.427-1.397
		c-0.166-0.17-0.364-0.262-0.574-0.262c-0.163,0-0.391-0.091-0.458-0.239c-0.025-0.051-0.739-1.439-2.884-1.158
		c-2.227,0.29-3.54,1.808-3.482,3.046c0.021,0.438,0.161,2.901,0.161,2.901c0.01,0.181-0.098,0.348-0.267,0.413
		c-0.167,0.063-0.359,0.015-0.475-0.125c-0.059-0.071-0.167-0.155-0.211-0.164c0.008,0.054-0.093,0.497,0.032,1.298
		c0.108,0.69,0.329,1.24,0.515,1.467c0.097-0.129,0.259-0.217,0.414-0.195c0.192,0.029,0.363,0.152,0.378,0.346
		c0.021,0.232,0.39,1.265,0.721,2.088c0.02,0.05,0.03,0.104,0.03,0.157v1.336L25.117,23.737z"/>
	<path fill="none" d="M10.571,23.863c0.303,0.294,0.781,0.729,1.017,0.863l0.394,0.225l-0.886,1.293
		c0.093,0.315,0.271,0.964,0.407,1.733c0.658-2.418,1.175-4.855,1.182-4.888l0.08-0.378c-0.002,0.001-0.004,0.004-0.006,0.005
		L10.571,23.863z"/>
	<path d="M48.453,24.879l-0.074-0.155l-5.93-2.081c0.085-0.078,0.146-0.177,0.146-0.295v-1.164
		c0.1-0.251,0.287-0.734,0.423-1.15c0.131,0,0.254-0.034,0.373-0.112c0.578-0.376,0.829-1.552,0.855-2.253
		c0.022-0.6-0.098-1.005-0.359-1.206c-0.107-0.081-0.232-0.128-0.363-0.136c0.035-0.594,0.08-1.389,0.084-1.598
		c0.019-0.671-0.175-1.251-0.544-1.63c-0.225-0.23-0.505-0.375-0.803-0.417c-0.304-0.439-1.135-1.325-2.889-1.099
		c-2.19,0.285-3.433,1.828-3.37,3.156c0.011,0.206,0.054,0.996,0.088,1.587c-0.132,0.008-0.259,0.055-0.367,0.138
		c-0.26,0.199-0.381,0.604-0.358,1.204c0.028,0.701,0.276,1.876,0.857,2.253c0.117,0.076,0.21,0.105,0.37,0.112
		c0.136,0.416,0.324,0.899,0.424,1.15v1.164c0,0.118,0.062,0.218,0.146,0.296l-5.014,1.759l-3.636-1.276l-0.099,0.467
		c-0.009,0.042-0.744,3.52-1.655,6.776c-0.18-1.251-0.487-2.348-0.619-2.784l1.093-1.596l-0.393-0.225
		c-0.38-0.217-1.162-0.958-1.43-1.225l-0.009-0.009l2.941-1.541c0.137-0.073,0.224-0.215,0.224-0.37v-1.51
		c0.113-0.286,0.394-0.999,0.576-1.572c0.156,0.023,0.336-0.015,0.495-0.117c0.698-0.454,1.009-1.95,1.041-2.787
		c0.028-0.729-0.112-1.214-0.414-1.444c-0.149-0.116-0.337-0.164-0.518-0.153c0.046-0.767,0.108-1.88,0.116-2.161
		c0.021-0.831-0.215-1.541-0.664-2.003c-0.281-0.29-0.636-0.463-1.01-0.503c-0.344-0.52-1.367-1.698-3.612-1.401
		c-2.735,0.357-4.287,2.271-4.209,3.916c0.013,0.28,0.074,1.39,0.118,2.154c-0.18-0.017-0.37,0.036-0.521,0.152
		c-0.303,0.23-0.441,0.715-0.413,1.444c0.031,0.837,0.341,2.333,1.042,2.787c0.157,0.102,0.336,0.14,0.493,0.117
		c0.184,0.574,0.463,1.286,0.577,1.572v1.51c0,0.154,0.086,0.297,0.224,0.37l2.941,1.542l-0.009,0.009
		c-0.269,0.267-1.051,1.007-1.43,1.225L23,25.99l1.092,1.596c-0.132,0.438-0.438,1.537-0.618,2.789
		c-0.91-3.258-1.647-6.739-1.657-6.781l-0.098-0.467l-3.752,1.317l-5.13-1.801c0.084-0.078,0.146-0.177,0.146-0.295v-1.164
		c0.101-0.251,0.288-0.734,0.424-1.15c0.151-0.008,0.255-0.036,0.372-0.112c0.579-0.376,0.829-1.552,0.856-2.253
		c0.021-0.6-0.099-1.005-0.359-1.206c-0.108-0.081-0.232-0.128-0.364-0.136c0.036-0.594,0.08-1.389,0.085-1.598
		c0.019-0.671-0.175-1.251-0.544-1.63c-0.225-0.23-0.505-0.375-0.804-0.417c-0.303-0.439-1.133-1.325-2.888-1.099
		c-2.19,0.285-3.434,1.828-3.369,3.155c0.01,0.208,0.053,0.997,0.086,1.588c-0.133,0.008-0.257,0.055-0.366,0.138
		c-0.26,0.199-0.381,0.604-0.358,1.204c0.026,0.7,0.276,1.876,0.856,2.253c0.118,0.076,0.236,0.107,0.37,0.112
		c0.137,0.416,0.324,0.899,0.424,1.15v1.164c0,0.118,0.062,0.218,0.146,0.295L1.62,24.724l-0.075,0.155
		c-1.795,3.708-1.538,11.27-1.526,11.59l0.014,0.401h12.199c-0.07,2.104-0.019,3.649-0.012,3.807l0.015,0.402h25.762l0.016-0.402
		C38.018,40.52,38.07,38.974,38,36.87h11.965l0.016-0.401C49.992,36.148,50.249,28.587,48.453,24.879z M41.2,24.726
		c-0.235-0.133-0.714-0.569-1.015-0.864l2.187-1.146c0.002,0,0.003-0.003,0.005-0.004l-0.08,0.377
		c-0.006,0.032-0.522,2.47-1.181,4.888c-0.136-0.77-0.314-1.418-0.408-1.733l0.886-1.293L41.2,24.726z M39.807,24.659
		c0.174,0.162,0.397,0.364,0.609,0.533l-0.609,0.891l-0.609-0.891C39.41,25.022,39.634,24.821,39.807,24.659z M36.901,18.974
		c-0.131-0.02-0.255,0.028-0.348,0.114c-0.261-0.411-0.436-1.476-0.356-1.86c0.01,0.009,0.017,0.019,0.025,0.026
		c0.114,0.141,0.307,0.191,0.474,0.126c0.169-0.065,0.277-0.232,0.267-0.413c0,0-0.108-1.927-0.126-2.268
		c-0.044-0.929,0.954-2.067,2.644-2.287c1.61-0.206,2.143,0.817,2.16,0.853c0.068,0.149,0.278,0.241,0.442,0.241
		c0.139,0,0.271,0.061,0.383,0.176c0.207,0.211,0.32,0.586,0.308,1.026c-0.008,0.341-0.123,2.255-0.123,2.257
		c-0.011,0.18,0.096,0.347,0.265,0.414c0.166,0.065,0.359,0.016,0.476-0.126c0.002-0.002,0.007-0.007,0.012-0.012
		c0.078,0.427-0.089,1.441-0.342,1.842c-0.091-0.092-0.226-0.14-0.356-0.12c-0.191,0.027-0.34,0.185-0.356,0.377
		c-0.015,0.17-0.3,0.969-0.558,1.608c-0.02,0.05-0.029,0.102-0.029,0.156v0.989l-1.954,1.024l-1.954-1.024v-0.989
		c0-0.054-0.012-0.106-0.031-0.156c-0.257-0.639-0.543-1.438-0.556-1.608C37.249,19.147,37.094,19.001,36.901,18.974z M37.24,22.716
		l2.188,1.146c-0.301,0.294-0.779,0.729-1.016,0.863l-0.393,0.225l0.885,1.294c-0.093,0.314-0.271,0.966-0.406,1.738
		c-0.66-2.42-1.177-4.861-1.184-4.894l-0.08-0.377C37.237,22.713,37.238,22.716,37.24,22.716z M22.5,22.367v-1.336
		c0-0.054-0.011-0.107-0.03-0.157c-0.331-0.823-0.7-1.856-0.721-2.088c-0.015-0.194-0.186-0.317-0.378-0.346
		c-0.155-0.022-0.317,0.066-0.414,0.195c-0.186-0.227-0.406-0.777-0.515-1.467c-0.125-0.801-0.024-1.245-0.032-1.298
		c0.044,0.008,0.152,0.092,0.211,0.164c0.115,0.14,0.308,0.188,0.475,0.125c0.169-0.065,0.276-0.232,0.267-0.413
		c0,0-0.14-2.463-0.161-2.901c-0.058-1.238,1.256-2.756,3.482-3.046c2.145-0.281,2.859,1.107,2.884,1.158
		c0.067,0.148,0.295,0.239,0.458,0.239c0.21,0,0.408,0.091,0.574,0.262c0.291,0.298,0.442,0.795,0.427,1.397
		c-0.011,0.435-0.158,2.89-0.158,2.891c-0.011,0.18,0.096,0.347,0.265,0.414c0.166,0.065,0.36,0.016,0.476-0.125
		c0.052-0.064,0.164-0.154,0.138-0.189c0.065,0.08,0.166,0.523,0.04,1.324c-0.114,0.73-0.354,1.304-0.503,1.494
		c-0.071-0.177-0.251-0.287-0.447-0.256c-0.192,0.028-0.34,0.187-0.356,0.38c-0.019,0.232-0.389,1.265-0.72,2.088
		c-0.02,0.05-0.03,0.104-0.03,0.157v1.336l-2.614,1.37L22.5,22.367z M11.587,24.726c-0.235-0.133-0.714-0.569-1.017-0.863
		l2.188-1.146c0.002-0.001,0.004-0.004,0.006-0.005l-0.08,0.378c-0.007,0.032-0.523,2.47-1.182,4.888
		c-0.136-0.77-0.314-1.418-0.407-1.733l0.886-1.293L11.587,24.726z M10.194,24.659c0.173,0.162,0.396,0.364,0.609,0.533l-0.61,0.891
		l-0.609-0.891C9.796,25.022,10.021,24.821,10.194,24.659z M7.288,18.974c-0.127-0.019-0.254,0.027-0.347,0.113
		c-0.261-0.409-0.435-1.475-0.356-1.86c0.009,0.009,0.018,0.019,0.023,0.026c0.116,0.142,0.308,0.192,0.475,0.126
		c0.169-0.065,0.276-0.232,0.266-0.413c0,0-0.107-1.926-0.124-2.268c-0.044-0.929,0.953-2.067,2.644-2.287
		c1.61-0.206,2.143,0.817,2.16,0.853c0.068,0.149,0.278,0.241,0.441,0.241c0.139,0,0.271,0.061,0.384,0.176
		c0.207,0.211,0.32,0.586,0.308,1.026c-0.008,0.341-0.124,2.255-0.124,2.257c-0.011,0.18,0.097,0.347,0.265,0.414
		c0.167,0.065,0.36,0.016,0.476-0.126c0.003-0.002,0.008-0.007,0.012-0.012c0.08,0.425-0.089,1.441-0.341,1.842
		c-0.092-0.093-0.223-0.138-0.357-0.12c-0.191,0.028-0.34,0.185-0.356,0.377c-0.015,0.17-0.3,0.969-0.557,1.608
		c-0.021,0.05-0.031,0.102-0.031,0.156v0.989l-1.953,1.024l-1.954-1.024v-0.989c0-0.054-0.011-0.106-0.03-0.156
		C7.952,20.31,7.667,19.51,7.653,19.34C7.634,19.147,7.479,19.001,7.288,18.974z M7.627,22.716l2.188,1.147
		c-0.302,0.294-0.78,0.729-1.015,0.864l-0.394,0.224l0.884,1.293c-0.093,0.315-0.271,0.967-0.406,1.738
		c-0.659-2.419-1.176-4.86-1.184-4.893l-0.08-0.379C7.625,22.712,7.625,22.715,7.627,22.716z M9.776,36.035H0.845
		c-0.027-1.596-0.024-7.54,1.381-10.638l4.759-1.671c0.264,1.192,1.002,4.424,1.772,6.753v0.001c0.004,0.014,0.009,0.026,0.012,0.04
		l1.007,3.043V36.035z M9.563,30.229c-0.131-1.683,0.577-3.902,0.585-3.926l0.045-0.142l0.046,0.143
		c0.008,0.023,0.721,2.238,0.588,3.924l-0.633,1.207L9.563,30.229z M10.611,36.035v-2.47l0.979-2.965
		c0.013-0.039,0.026-0.078,0.039-0.119l0.003-0.008c0.768-2.329,1.506-5.557,1.768-6.747l3.306,1.16l-2.471,0.868l-0.074,0.156
		c-1.286,2.656-1.744,6.874-1.896,10.125H10.611z M24.699,40.244H13.043c-0.035-1.869-0.069-9.764,1.796-13.817l6.26-2.197
		c0.308,1.404,1.278,5.693,2.29,8.755c0.001,0.004,0.002,0.008,0.003,0.012l1.158,3.507l-0.081-0.852
		c0.077,0.139,0.154,0.262,0.229,0.368V40.244z M24.193,32.733c-0.177-2.178,0.744-5.061,0.754-5.09l0.062-0.194l-0.83-1.215
		c0.326-0.251,0.689-0.582,0.938-0.817c0.248,0.235,0.612,0.566,0.937,0.817l-0.832,1.215l0.064,0.196
		c0.01,0.029,0.932,2.909,0.752,5.086l-0.922,1.765L24.193,32.733z M37.188,40.244H25.534v-4.224
		c0.075-0.107,0.152-0.231,0.23-0.371l-0.08,0.847l1.109-3.363c0.017-0.047,0.032-0.096,0.049-0.146l0.003-0.01
		c1.011-3.062,1.979-7.345,2.288-8.748l6.258,2.197C37.256,30.479,37.225,38.377,37.188,40.244z M39.389,36.035h-1.422
		c-0.151-3.252-0.609-7.47-1.896-10.125l-0.075-0.156l-2.586-0.908l3.188-1.119c0.263,1.192,1.002,4.424,1.771,6.753
		c0.005,0.011,0.009,0.024,0.013,0.035l1.007,3.048V36.035z M39.175,30.229c-0.13-1.683,0.578-3.902,0.586-3.926l0.046-0.142
		l0.046,0.143c0.009,0.023,0.72,2.238,0.586,3.924l-0.632,1.207L39.175,30.229z M49.155,36.035h-8.931v-2.47l0.979-2.965
		c0.014-0.039,0.026-0.078,0.039-0.119l0.003-0.008c0.769-2.329,1.506-5.557,1.769-6.747l4.761,1.671
		C49.18,28.495,49.183,34.439,49.155,36.035z"/>
  </symbol>
</svg>