<svg xmlns="http://www.w3.org/2000/svg">
  <symbol viewBox="0 0 50 50" id="s">
	<path d="M49.352,37.824c-0.36,0-0.65-0.291-0.65-0.648c0-13.068-10.633-23.702-23.701-23.702
		S1.299,24.108,1.299,37.176c0,0.357-0.29,0.648-0.649,0.648c-0.36,0-0.65-0.291-0.65-0.648c0-13.785,11.215-25,25-25
		c13.785,0,25,11.215,25,25C50,37.533,49.71,37.824,49.352,37.824z"/>
	<path d="M36.958,31.161c0,0-7.017-0.847-14.791,1.3c-1.431,0.396-2.268,1.875-1.875,3.303
		c0.396,1.432,1.875,2.27,3.302,1.873C31.372,35.492,36.958,31.161,36.958,31.161z"/>
	<g>
		<path d="M3.259,37.711C3.38,32.76,5.387,27.977,8.666,24.42l-0.627-0.626C4.82,27.709,3.082,32.746,3.259,37.711z"
			/>
		<path d="M24.032,17.911c4.682,0.124,9.196,2.007,12.57,5.091l2.003-2.003c-4.092-3.381-9.371-5.214-14.573-5.036
			c-0.443,0.01-0.884,0.06-1.324,0.1v1.868C23.149,17.915,23.591,17.895,24.032,17.911z"/>
		<path d="M39.755,21.988c-0.209-0.2-0.438-0.375-0.656-0.565l-2.029,2.03c0.205,0.201,0.423,0.39,0.62,0.601
			c3.487,3.699,5.358,8.692,5.169,13.683l3.896-0.051C46.624,31.779,44.008,25.958,39.755,21.988z"/>
		<path d="M9.688,23.366c3.375-3.203,7.836-5.117,12.371-5.422V16.11c-4.989,0.595-9.697,2.967-13.061,6.566
			c-0.188,0.198-0.354,0.417-0.534,0.624l0.653,0.653C9.31,23.759,9.487,23.551,9.688,23.366z"/>
	</g>
  </symbol>
</svg>