
      <svg xmlns="http://www.w3.org/2000/svg">
        <symbol id="s" viewBox="0 0 145 151.9">
          

<path  d="M117.7,113.4l0.4-0.3l-0.4-0.4v-3l0.4-0.4l-0.4-0.3V79.8l0.4-0.3l-0.4-0.4v-3l0.4-0.4l-0.4-0.3V46.3l0.4-0.3
	l-0.4-0.4v-3l0.4-0.4l-0.4-0.3V28.2H145L110.1,1.5V1.4h-0.2L108.1,0L0,28.2h20.9v26.9h5.4V28.2h69.9v112.9H82.7v10.8h48.4v-10.8
	h-13.4V113.4z M112.3,137.4l-9.7-9.4l9.7-9.4V137.4z M101.6,33.7L112.2,44l-10.7,10.3V33.7z M112.3,22.9h-10.8v-5.4h3.2h5.4h2.2
	V22.9z M101.6,67.3l10.7,10.3l-10.7,10.3V67.3z M101.6,100.9l10.7,10.3l-10.7,10.3V100.9z M112.3,103.8l-9.7-9.4l9.7-9.4V103.8z
	 M112.3,70.2l-9.7-9.4l9.7-9.4V70.2z M112.3,36.6l-8.7-8.4h8.7V36.6z M117.7,22.9v-8.8l11.4,8.8H117.7z M115.1,12.1h-5V8.3
	L115.1,12.1z M41.8,22.9l62.9-16.4v5.7h-8.5v10.8H41.8z M101.6,134.5l6.9,6.7h-6.9V134.5z"/>

        </symbol>
      </svg>
    