
      <svg xmlns="http://www.w3.org/2000/svg">
        <symbol id="s" viewBox="0 0 100 100">
          

<g>
	<path  d="M53.3,58c-0.6,0-1.4,0-2.3,0c-5.2-0.3-7.5,0-8.1,0.3c-1.4,1.2-2,5.8-2,6.3c0,0,0,0.3,0.3,0.3
		c0,0,4.3,0.6,8.6,0.6l0.3-0.3c0,0,0-0.3-0.3-0.3c-3.5,0-6.9-0.3-8.1-0.6c0-1.7,0.6-4.6,1.4-5.2c0.6-0.3,5.2-0.3,7.8-0.3
		c0.9,0,1.7,0,2.3,0c2.3,0,5.8,4.3,6.9,6.1c0.3,0,0.3,0,0.6,0c0,0,0-0.3,0-0.6C60.5,64,56.5,58,53.3,58z"/>
	<path  d="M34.6,59.1c-0.3-0.3-0.6-0.3-0.6,0l-1.4,2.3h-5.2l1.7-1.7c0.3-0.3,0.3-0.6,0-0.6c-0.3-0.3-0.6-0.3-0.6,0
		l-1.7,2.6c-0.3,0.3-0.3,0.6,0,0.6s0.3,0,0.3,0v2.9c0,0,0,0.3,0.3,0.3c0,0,0.3,0,0.3-0.3v-2.9h5.5l0.3,2.9c0,0.3,0,0.3,0.3,0.3
		c0.3-0.3,0.3-0.3,0.3-0.6l-0.6-3.2l1.4-2C34.9,59.7,34.9,59.4,34.6,59.1z"/>
	<path  d="M25.4,61.4c0,0-4.3,0-9.8-0.3l0.6-0.6c0.3-0.3,0.3-0.3,0-0.6c-0.3-0.3-0.3-0.3-0.6,0L15,60.9v-0.6l1.2-1.4
		c0.3-0.3,0.3-0.6,0-0.6c-0.3-0.3-0.6-0.3-0.6,0l-0.9,1.2h-2.3l-0.3,0.3c0,0,0,0.3,0.3,0.3h2v1.4c0,0,0,0.3,0.3,0.3
		c5.2,0.6,9.5,0.6,10.7,0.6v2.9c0,0,0,0.3,0.3,0.3c0,0,0.3,0,0.3-0.3l-0.3-3.5C25.6,61.7,25.6,61.4,25.4,61.4z"/>
	<path  d="M99.7,68.9c0.3-0.3,0-0.6,0.3-0.6l-9.8-9.2l-0.9-4.3c0-0.3-0.3-0.6-0.3-0.6l-0.6-0.6
		c-0.6-2.6-3.2-20.2-14.1-28c0-0.6-0.6-2-1.2-3.2c-0.3-0.3-0.3-0.3-0.6-0.6C71.2,20.2,60.8,13,46.1,13C30.5,13,10.4,24,4.3,55.4
		c-2,0.9-2,1.4-2,1.7c0,0.3,0,3.2,0,4.3C0,63.5,0,64,0,64.3c0,0,0,3.5,8.1,4.9l-0.6,0.6v0.3v12.4V83h0.9c0.3,0.6,1.7,2,4.9,2.3
		l1.2,1.4c0.3,0.3,0.3,0.3,0.6,0.3c0,0,0.3,0,1.2,0c3.5,0,14.7-1.4,28-15.6c3.2,0.3,5.8,0.3,6.9,0.6c1.2,0.3,2.9,0.6,4.6,0.9
		c4.9,0.6,11.2,1.7,14.7,1.7c0.3,0,0.6,0,0.9,0C71.5,74.7,98,72.7,99.7,68.9z M45.5,14.2c13.3,0,22.2,5.8,24.8,7.8
		c-3.2,0.6-6.6,0.9-7.2,0.6c0,0-0.3,0-0.6-0.3c-12.1-6.6-23.9-7.5-34.9-2.9C33.4,15.6,39.8,14.2,45.5,14.2z M15.3,85.1l-1.2-1.4
		c0-0.3-0.3-0.3-0.6-0.3c-3.2,0-4-1.7-4-1.7l-0.3-0.3c0.3-1.7,0.6-3.2,1.4-4.6l1.7,0.6c0.3,0,0.3,0,0.3,0c0.3,0,0.3,0,0.6-0.3
		l0.6-0.9c8.9,0.9,15-4.3,16.4-5.8c4.3,0,8.4,0.3,11.8,0.6C28.2,85.1,17.3,85.1,15.3,85.1z M11.5,75.8c0.3-0.6,0.3-0.9,0.6-1.2
		l0.3-0.6c1.2-2.3,3.7-3.7,4.3-4c2.6,0.3,5.8,0.3,9.2,0.6c0.6,0,1.4,0,2,0c-2.6,1.7-7.8,4.6-14.4,4c-0.3,0-0.6,0-0.6,0.3l-0.6,0.9
		H11.5z M71.2,73c-0.3,0-0.6,0-0.9,0c-3.5,0-9.8-0.9-14.4-1.7c-1.7-0.3-3.5-0.6-4.6-0.9c-2.9-0.3-14.7-1.2-25.4-1.7
		c-2.3,0-4.6-0.3-6.6-0.3H17c-2.9-0.3-5.2-0.6-6.9-0.6c-7.2-0.6-8.4-2.9-8.6-3.5c0.3-0.6,1.2-1.4,2-2c0.3,0,0.3-0.3,0.3-0.6
		c0,0,0-2.3,0-3.7l2.3,1.7v3.2c0,0,0,0.3,0.3,0.3c0,0,0.3,0,0.3-0.3v-3.2l1.7-0.9c0.3-0.3,0.3-0.3,0.3-0.6C8.4,58,8.4,58,8.1,58
		l-1.7,0.9l-2.6-1.2c0.3,0,0.6-0.3,1.2-0.6c0,0,0.3-0.3,0.3-0.6c2.6-13.5,8.1-23.3,14.4-30h0.3c0.3,0,0.3-0.3,0.6-0.3
		c11.8-9.5,26.5-10.1,41.2-2c0.6,0,0.9,0.3,0.9,0.3c1.4,0.6,6.9-0.3,9.2-0.6c0.3,0.6,0.6,1.4,0.9,2c-2,0.3-7.8,0.9-10.1,0.6
		c-0.6-0.3-2-0.9-3.5-1.4C53,22.2,40.6,16.8,28,21.7c-0.3,0.3-0.3,0.3-0.3,0.6c0.3,0.3,0.3,0.3,0.6,0.3C40.6,17.9,53,23.4,58.8,26
		c1.7,0.9,2.9,1.4,3.5,1.4c0.3,0,0.6,0,1.2,0c2.6,0,7.5-0.6,9.2-0.9c0.3,0.3,0.3,0.3,0.3,0.3c11,7.8,13.5,27.1,13.5,27.4
		c0,0.3,0,0.6,0.3,0.6l0.6,0.6l0.6,4c-1.7,0.6-8.6,2-26.8,2.6c-0.9-2-3.7-5.5-7.2-5.5H43.5l-0.3,0.3c0,0,0,0.3,0.3,0.3h10.4
		c3.7,0,6.6,4.9,7.2,5.8l-0.3,0.9c0,0.3,0,0.6,0.3,0.6c0.3,0,0.3,0,0.3-0.3l0.3-1.2c0.3-0.3,0.3-0.3,0-0.6c0,0.1,0,0.2,0,0.2
		s0-0.1,0-0.2c18.2-0.3,24.8-1.7,26.8-2.6l9.5,8.9C95.1,70.4,79.5,72.4,71.2,73z"/>
	<path  d="M61.7,62.5c0,0,0-0.1,0-0.2"/>
</g>

        </symbol>
      </svg>
    