
      <svg xmlns="http://www.w3.org/2000/svg">
        <symbol id="s" viewBox="0 0 203.5 99.1">
          

<g>
	<path  d="M153.7,51.3c0.7,0.8,1.9,0.9,2.7,0.3c0.8-0.6,1-1.8,0.5-2.7C142.3,26,117.4,12.3,90.2,12.3
		c-27.1,0-52,13.6-66.7,36.5c-0.6,0.9-0.4,2.1,0.5,2.7c0.4,0.3,0.8,0.4,1.2,0.4c0.6,0,1.1-0.2,1.5-0.7C42.9,33.3,66.1,23,90.2,23
		C114.4,23,137.6,33.3,153.7,51.3z M90.2,16.4c16,0,31.3,5,43.8,14.1c-13.3-7.5-28.4-11.5-43.8-11.5c-15.5,0-30.6,4-43.8,11.5
		C59,21.4,74.2,16.4,90.2,16.4z"/>
	<path  d="M197,66.4h-12.6H181c-3.1,0-5.8-0.3-8.1-1.5c-0.4-1.4-0.9-2.6-1.4-3.8c-0.3-0.6-0.5-1.3-0.8-2.1
		c-0.2-0.5-0.3-0.8-0.5-1.1L170,35.8c0-0.2,0-0.9,0-1.1c0-0.3,0-0.8,0-1c-0.1-1-0.3-2-0.6-2.9c-1.3-3.3-4.4-5.3-8.8-5.5l-10.9,0.5
		c-0.2-0.2-0.4-0.5-0.6-0.7C133.5,8.9,112.6,0,90.2,0C64.9,0,41.5,11.8,26.3,31.1c-4.3,4.7-8.1,9.8-11.2,15.5
		c-3.6,6.5-6.3,14.1-8.2,19.8l-0.4,0c-3.9,0-6.5,4.8-6.5,8.1c0,3.3,2.5,8.1,6.5,8.1H19l3.4,16.6l81.1-16.6H197
		c3.9,0,6.5-4.8,6.5-8.1C203.5,71.2,200.9,66.4,197,66.4z M160.6,29.3c1.8,0.1,4.1,0.6,5,2.9c0.2,0.5,0.3,1.1,0.4,1.7
		c0,0.2,0,0.5,0,0.7l0,1l0.1,13.8c-0.2-0.4-0.4-0.8-0.7-1.2c-0.8-1.5-1.7-2.8-2.6-4.3c-0.4-0.7-0.9-1.3-1.3-1.9
		c-0.2-0.4-0.4-0.8-0.7-1.2c-1.9-3.2-4-6.4-6.3-9.4c-0.5-0.6-1-1.1-1.4-1.6L160.6,29.3z M101.9,5C98,4.5,94.2,4.1,90.2,4.1
		c-1.2,0-2.3,0.1-3.5,0.1C87.9,4.2,89.1,4,90.2,4C94.2,4,98.1,4.4,101.9,5z M80.9,4.6c0.5-0.1,1-0.1,1.4-0.1
		C81.9,4.5,81.4,4.6,80.9,4.6z M18.8,51.1c0.1-0.1,0.3-0.2,0.4-0.4C27.5,35.8,40.1,24.2,54.9,17c10.7-4.8,22.6-7.5,35.3-7.5
		c20.8,0,40.6,7.9,55.7,22.3c1.7,1.6,3.3,3.3,4.8,5c1.8,2.1,3.4,4.1,4.9,6.1c0.9,1.3,1.8,2.5,2.7,4c0.8,1.3,1.7,2.6,2.4,3.9
		c1.4,2.5,2.8,5.1,4,8.1c0.2,0.5,0.4,0.8,0.6,1.2c0.1,0.2,0.2,0.4,0.3,0.7c0.3,0.8,0.6,1.5,0.9,2.2c0.4,1.1,0.9,2.1,1.2,3.3h-55.1
		l-6.5-19.7c-0.4-1.1-1.4-1.8-2.6-1.8H77.1c-1.2,0-2.2,0.8-2.6,1.9l-4.8,15L68,66.4H12.6C14.1,61.7,16.3,56.1,18.8,51.1z M73.8,66.4
		l1.1-2.9L79,50.3h22.6l5.4,16.2L73.8,66.4L73.8,66.4z M27.3,87.7c-1.4,0.3-2.9-0.6-3.2-2.1c-0.3-1.3,0.5-2.6,1.8-3h1.7
		c0.9,0.3,1.6,1,1.8,2C29.6,86,28.7,87.4,27.3,87.7z M35.8,85.9c-1.4,0.3-2.9-0.6-3.2-2.1c-0.1-0.4,0-0.9,0.1-1.3h5.1
		c0,0.1,0.1,0.1,0.1,0.2C38.2,84.2,37.3,85.6,35.8,85.9z M44.7,84.7c-1.4,0.3-2.9,0.2-3.2-1.3c-0.1-0.6,0-0.8,0.2-0.8h4.9h0.2
		C46.8,83.7,46,84.4,44.7,84.7z M62.3,82.7c-0.6,0.1-1.1-0.2-1.6-0.2h2.1C62.6,82.6,62.5,82.7,62.3,82.7z M197,77.2H13.9l-7.2,0
		c-0.5-0.2-1.3-1.7-1.3-2.7c0-1,0.8-2.5,1.1-2.7l63.4,0c0.1,0,0.2,0,0.4,0h40.5H181c0.4,0,0.7,0,1.1,0c0.4,0,0.7,0,1.1,0l1.1,0h12.5
		c0.5,0.3,1.2,1.7,1.2,2.7C198.1,75.5,197.2,77,197,77.2z"/>
</g>

        </symbol>
      </svg>
    