
      <svg xmlns="http://www.w3.org/2000/svg">
        <symbol id="s" viewBox="0 0 100 100">
          

<g>
	<path  d="M93.2,72c-1.2-1.2-5.6-7-7.5-10.9c-2.2-4.2-7.5-10.1-9.5-11.3c-2-1.4-4.4-0.2-5.2,0.2c-0.2,0-0.2,0-0.4,0
		c-0.8-0.2-2.4-0.4-3.8,0.2c-1.4,0.8-1.8,1.6-2,2.4c0,0.4-0.2,0.4-0.4,0.6c-0.2,0.2-0.2,0.2-0.6,0c-0.8-0.2-2-0.4-3.8,0.8
		c-2.4,1.6-2.4,3.8-2,5.2l0,0c-0.2-0.2-1-1-2-2c-1.4-1.4-2.8-2.8-3.4-3.4c-0.4-0.4-1-0.8-1.6-1.4c-0.6-0.6-1.4-1.2-2.2-1.8
		c2.2-3.6,4.2-7.7,4.2-12.3c0-13.3-9.1-22.8-21.5-22.8c-12.5,0-21.5,9.5-21.5,22.8c0,5.6,2.8,10.3,5.2,13.9c0.8,1.2,1.4,2.4,2,3.2
		c1,2,1.2,4.4,1.2,6c0,2,0.8,3.8,2.2,5v0.2v5.4c0,0.8,0.4,1.6,1,2c-0.2,0.4-0.4,0.8-0.4,1.2v0.8c0,0.6,0.2,1,0.6,1.4
		c-0.4,0.4-0.6,0.8-0.6,1.4v0.8c0,0.6,0.2,1,0.6,1.4c-0.4,0.4-0.6,0.8-0.6,1.4v0.8c0,1,0.8,1.8,2,1.8h2c0,0.2,0,0.2,0.2,0.4l1.6,2.4
		l0,0c0.6,0.8,1.4,1.2,2.4,1.2h5.2c1,0,1.8-0.4,2.4-1.2l1.6-2.4c0-0.2,0.2-0.2,0.2-0.4h2c1,0,2-0.8,2-1.8v-0.8c0-0.6-0.2-1-0.6-1.4
		c0.4-0.4,0.6-0.8,0.6-1.4v-0.8c0-0.6-0.2-1-0.6-1.4c0.4-0.4,0.6-0.8,0.6-1.4v-0.2c0-0.4-0.2-0.8-0.4-1.2c0.6-0.4,1-1.2,1-2V67v-0.2
		c1.4-1.4,2.2-3.2,2.2-5c0-1,0.2-2,0.2-3c0.2,0.4,0.6,0.6,0.8,0.8c0.8,1,2.4,2.2,3.8,3.6c1.2,1,2.2,2,3,2.8c0.4,0.4,1,1.2,2,2
		c1,1.2,2.8,2.8,4.2,4.4c-0.6-0.4-1.2-0.6-1.6-0.8c-1.4-0.8-4.2-2-8.5-0.8c-2.8,0.8-3.4,2.6-3.6,3.4c-0.2,1,0,2.2,0.6,2.8
		c0.4,0.4,1,0.6,2.8,0.8c0.6,0.2,1.4,0.2,1.8,0.4c1.2,0.2,2.2,0.8,3.8,2.2c0.8,0.6,1.6,1,2.4,1.4c1.4,0.6,2.8,1.4,4.2,2.8
		c2.6,2.4,6.4,4,9.7,4c0.8,0,1.6,0,2.4-0.2c2.4-0.2,3.8-0.2,4.8,0.8c1.8,1.8,5.2,5.8,5.2,5.8l1.4-1.2c-0.2-0.2-3.4-4-5.4-5.8
		c-1.8-1.8-4.2-1.6-6.4-1.4c-0.8,0-1.6,0.2-2.2,0.2c-3,0-6.2-1.4-8.3-3.4c-1.6-1.6-3.2-2.4-4.6-3c-0.2-0.2-0.4-0.2-0.6-0.4
		c0.2-0.2,0.4-0.6,1.2-1c0.2-0.2,0.4-0.4,0.2-0.6c-0.2-0.2-0.4-0.4-0.6-0.2c-1,0.4-1.4,1-1.6,1.4c-0.2-0.2-0.6-0.4-0.8-0.4
		c-1.2-0.8-2-1.4-3-1.8c0.2-0.4,0.2-0.8,0.2-1c-0.2-0.8-1.8-1.4-3-1.8c-1-0.2-1.8-0.2-2.2,0.4c-0.2,0.2-0.2,0.4,0,0.6
		c0.2,0.2,0.6,0.2,0.6,0c0.2-0.2,0.4-0.2,1-0.2c1.2,0.2,2.6,1,2.6,1.2c0,0.2,0,0.2,0,0.4c-0.2,0-0.4-0.2-0.6-0.2
		c-0.6-0.2-1.2-0.2-2-0.4c-0.6-0.2-1.6-0.2-1.8-0.2c0,0-0.2-0.4,0-1c0.2-0.4,0.6-1.4,2.2-1.8c3.6-1,5.8,0,7.2,0.8
		c0.4,0.2,1.2,0.8,2,1.2c2.4,1.6,3.4,2,4.2,1.8l0.6-0.2l0.2-0.4c0.2-0.8,0-1.4-7.2-8.7c-0.8-0.8-1.6-1.6-1.8-2c-0.8-0.8-2-1.8-3.2-3
		c-1.4-1.2-2.8-2.4-3.6-3.2c-1.4-1.8-5.8-6.4-7.4-8.1l0.6,0.6h0.2c0,0,1.6-0.6,2.4-2.2l0.2-0.4l-0.8-0.8c0.4,0.4,1,0.8,1.6,1.4
		c2.6,2.6,4.4,4,6,5.2c0.6,0.4,1.2,0.8,1.6,1.2c0.4,0.4,2,2,3.2,3.2c1,1,1.8,1.8,2.2,2.2c1,0.8,1.6,1.2,2.2,1c0.4,0,0.8-0.2,1.2-0.8
		s0.2-1,0-1.6c-0.4-1.4-0.6-2.6,1-3.6c1-0.8,1.6-0.6,2.2-0.6c0.6,0.2,1.4,0.2,2.4-0.6c0.6-0.6,0.8-1.2,0.8-1.6
		c0.2-0.4,0.2-0.8,1-1.2s1.6-0.2,2.4,0c0.6,0.2,1.2,0.2,1.6,0c0.2-0.2,2-1.2,3.2-0.4c1.8,1.2,7,6.8,8.7,10.5
		c2.2,4.2,6.6,10.3,7.9,11.5c1.4,1.2,6.2,6,6.2,6l1.4-1.4C99.2,77.7,94.4,73.1,93.2,72z M34.8,87c-0.2,0.2-0.4,0.4-0.8,0.4h-5.2
		c-0.2,0-0.6-0.2-0.8-0.4l-0.6-1h7.7L34.8,87z M23.1,83.3v-0.8h17.3v0.8H23.1z M23.1,79.9v-0.8h17.3v0.8H23.1z M23.1,76.3v-0.8h17.3
		v0.8H23.1z M40.8,72.2c0,0.4-0.2,0.6-0.6,0.6H22.9c-0.4,0-0.6-0.2-0.6-0.6v-4.4h18.5V72.2z M41.2,47.3l1,1c-0.4,0.6-1,1-1.4,1.2
		L40,48.7c-0.2-0.2-0.4-0.2-0.6,0c-0.2,0.2-0.2,0.4,0,0.6c-0.4-0.6-0.8-1.2-1-1.8c-0.4-1,0-1.4,0.2-1.6c0.4-0.4,0.8-0.6,1.8-0.2
		c0.4,0.2,0.8,0.4,1.4,0.8c-0.2,0-0.2,0-0.4,0.2C41,46.9,41,47.1,41.2,47.3z M40.8,43.9c-1.8-0.8-3.2,0-3.8,0.6
		c-1,1-1.2,2.2-0.6,3.6c0.4,1,1,2,2,3c0.8,0.8,3.4,3.6,5.4,5.8l-0.2,0.2c-0.4,1.4-0.4,2.8-0.6,4.4c0,1.2-0.4,2.6-1.4,3.4H21.5
		c-0.8-1-1.2-2.2-1.4-3.4c0-1.8-0.2-4.6-1.4-6.8c-0.4-1-1.2-2.2-2-3.6c-2-3.4-4.8-7.7-4.8-12.7c0-12.1,8.1-20.9,19.5-20.9
		s19.5,8.7,19.5,20.9c0,4.2-1.8,7.9-3.8,10.9c-0.6-0.6-1.4-1.2-2-2C43.6,45.5,42.2,44.5,40.8,43.9z"/>
	<path  d="M50.3,54.7c-2,0.6-2.8,2.6-2.8,2.8s0,0.6,0.4,0.6c0,0,0,0,0.2,0s0.4-0.2,0.4-0.4c0,0,0.6-1.6,2-2
		c0.2,0,0.4-0.4,0.4-0.6C50.7,54.7,50.5,54.5,50.3,54.7z"/>
	<path  d="M16.4,39c0-0.2-0.2-0.4-0.6-0.4c-0.2,0-0.4,0.2-0.4,0.6c0.4,2,1,4,2.2,5.6c0,0.2,0.2,0.2,0.4,0.2h0.2
		c0.2-0.2,0.4-0.4,0.2-0.6C17.4,42.7,16.8,41,16.4,39z"/>
	<path  d="M31.7,19.9c-9.1,0-16.5,7.4-16.5,16.5c0,0.2,0.2,0.4,0.4,0.4s0.4-0.2,0.4-0.4c0-8.5,7-15.5,15.5-15.5
		c0.2,0,0.4-0.2,0.4-0.4C32.1,20.1,31.9,19.9,31.7,19.9z"/>
	<path  d="M8.2,29.2l-7.2-2.8c-0.4-0.2-0.8,0-1,0.4s0,1,0.4,1l7.2,2.8h0.2c0.2,0,0.6-0.2,0.6-0.4
		C8.8,29.8,8.6,29.4,8.2,29.2z"/>
	<path  d="M12.8,22.1c0.2,0.2,0.4,0.2,0.6,0.2c0.2,0,0.4,0,0.6-0.2c0.2-0.2,0.2-0.8,0-1l-5.6-5.4c-0.4-0.4-0.8-0.4-1,0
		c-0.4,0.2-0.4,0.6,0,1L12.8,22.1z"/>
	<path  d="M21.1,15.9c0.2,0.2,0.4,0.4,0.6,0.4h0.2c0.4-0.2,0.6-0.6,0.4-1l-3-7c0-0.4-0.6-0.6-1-0.4
		c-0.2,0.2-0.4,0.6-0.2,1L21.1,15.9z"/>
	<path  d="M31.7,14.5c0.4,0,0.8-0.4,0.8-0.8V6c0-0.4-0.4-0.8-0.8-0.8c-0.4,0-0.8,0.4-0.8,0.8v7.5
		C30.9,14.1,31.3,14.5,31.7,14.5z"/>
	<path  d="M41.2,16.3h0.2c0.2,0,0.6-0.2,0.6-0.4l3-7c0.2-0.4,0-0.8-0.4-1c-0.4-0.2-0.8,0-1,0.4l-3,7
		C40.8,15.7,40.8,16.3,41.2,16.3z"/>
	<path  d="M49.9,22.3c0.2,0,0.4,0,0.6-0.2l5.6-5.4c0.2-0.2,0.2-0.8,0-1s-0.8-0.2-1,0l-5.6,5.4c-0.2,0.2-0.4,0.8,0,1
		C49.5,22.1,49.7,22.3,49.9,22.3z"/>
	<path  d="M54.7,30.2c0.2,0.2,0.4,0.4,0.6,0.4h0.2l7.2-2.8c0.4-0.2,0.6-0.6,0.4-1c-0.2-0.4-0.6-0.6-1-0.4l-7.2,2.8
		C54.7,29.4,54.5,29.8,54.7,30.2z"/>
</g>

        </symbol>
      </svg>
    