
      <svg xmlns="http://www.w3.org/2000/svg">
        <symbol id="s" viewBox="0 0 203.5 132.3">
          

<path  d="M187.7,0c-8.7,0-15.8,7.1-15.8,15.8c0,3.2,1,6.1,2.6,8.6l-49.3,49.3c-2.5-1.6-5.4-2.6-8.6-2.6
	c-3.7,0-7.1,1.3-9.8,3.4L93.3,61.2c2.1-2.7,3.4-6.1,3.4-9.8c0-8.7-7.1-15.8-15.8-15.8c-8.7,0-15.8,7.1-15.8,15.8
	c0,2.5,0.6,4.8,1.6,6.9l-44.1,44.1c-2.1-1-4.4-1.6-6.9-1.6c-8.7,0-15.8,7.1-15.8,15.8c0,8.7,7.1,15.8,15.8,15.8
	c8.7,0,15.8-7.1,15.8-15.8c0-4.1-1.6-7.8-4.1-10.6l42.9-42.9c2.8,2.5,6.5,4.1,10.6,4.1c2.9,0,5.5-0.8,7.8-2.1l14,14
	c-1.3,2.3-2.1,5-2.1,7.9c0,8.7,7.1,15.8,15.8,15.8c8.7,0,15.8-7.1,15.8-15.8c0-3.4-1.1-6.5-2.9-9.1l49.1-49.1
	c2.6,1.8,5.7,2.9,9.1,2.9c8.7,0,15.8-7.1,15.8-15.8S196.4,0,187.7,0z M15.8,126.4c-5.4,0-9.9-4.4-9.9-9.9c0-5.4,4.4-9.9,9.9-9.9
	c5.4,0,9.9,4.4,9.9,9.9C25.7,122,21.2,126.4,15.8,126.4z M71.1,51.4c0-5.4,4.4-9.9,9.9-9.9c5.4,0,9.9,4.4,9.9,9.9
	c0,5.4-4.4,9.9-9.9,9.9C75.5,61.2,71.1,56.8,71.1,51.4z M116.5,96.8c-5.4,0-9.9-4.4-9.9-9.9c0-5.4,4.4-9.9,9.9-9.9
	c5.4,0,9.9,4.4,9.9,9.9C126.4,92.4,122,96.8,116.5,96.8z M187.7,25.7c-5.4,0-9.9-4.4-9.9-9.9s4.4-9.9,9.9-9.9s9.9,4.4,9.9,9.9
	S193.1,25.7,187.7,25.7z"/>

        </symbol>
      </svg>
    