
      <svg xmlns="http://www.w3.org/2000/svg">
        <symbol id="s" viewBox="0 0 145 151.9">
          

<path  d="M115.1,31.1v-3.4l-1.5-1l0,0L72.7,0L32.1,27.3l0,0l-2.3,1.5l0,0v3.4v90l42.6,29.7l42.6-29.7V31.1L115.1,31.1z
	 M72.7,6.8l35.9,23.4L72.3,55.4L37.1,30.8L72.7,6.8z M109.5,97.8l-34.1,23.9v-15.8L109.5,82V97.8z M109.5,52.3L75.3,76.1V60.2
	l34.1-23.7V52.3z M69.7,99L35.5,75.1V59.3l34.1,23.9V99z M69.7,76.3L35.5,52.4V36.6l34.1,23.9V76.3z M35.5,82.1L69.7,106v15.8
	L35.5,97.9V82.1z M109.5,75L75.3,98.9V83.1l34.1-23.9V75z M35.5,104.8l34.1,23.9V143l-34.1-23.8V104.8z M75.3,143v-14.4l34.1-23.9
	v14.5L75.3,143z"/>

        </symbol>
      </svg>
    