
      <svg xmlns="http://www.w3.org/2000/svg">
        <symbol id="s" viewBox="0 0 100 100">
          

<g>
	<path  d="M27.6,17.4c0,0.3,0.3,0.3,0.3,0.3l46.3-0.3l-46.3-0.3C27.6,17.1,27.6,17.4,27.6,17.4z"/>
	<path  d="M77.1,2.1c0-0.3-0.3-0.6-0.6-0.6H14.6c-0.3,0-0.6,0.3-0.6,0.6c0,0.3,0.3,0.6,0.6,0.6h61.9
		C76.8,2.7,77.1,2.4,77.1,2.1z"/>
	<path  d="M55,49.9h0.6c0-1.2,0.6-2.4,1.8-2.7l-0.3-0.3C55.9,47.2,55,48.4,55,49.9z"/>
	<path  d="M58.3,48.7l30.7-12.1c2.1-0.6,3.2-2.4,3.2-4.4l-0.3-18.9c0-2.7-2.1-4.7-4.4-4.7V7.7h-5V4.1
		c0-2.4-2.4-4.1-5.3-4.1h-64c-2.9,0-5.3,1.8-5.3,4.1v12.7c0,2.4,2.4,4.1,5.3,4.1h64c2.9,0,5.3-1.8,5.3-4.1v-3.5h5.3v-1.2
		c0.3,0,0.6,0.6,0.6,0.9v19.2c0,0.3,0,0.6-0.6,0.9l-31,12.4c-1.8,0.9-2.9,2.7-2.9,4.4v4.4c-0.3,1.2-2.4,5.9-2.4,6.8V100h2.1H60V61.1
		c0-0.9-1.8-5.6-2.4-6.8v-4.7C57.7,49.3,58,48.7,58.3,48.7z M81.6,7.7v5.6v3.5c0,1.8-2.1,3.2-4.4,3.2h-64c-2.4,0-4.4-1.5-4.4-3.2
		V4.1c0-1.8,2.1-3.2,4.4-3.2h64c2.4,0,4.4,1.5,4.4,3.2V7.7z M86.6,12.7h-4.1V8.8h4.1V12.7z M59.1,61.1v38.1h-5.3V61.7
		c0-0.3-0.3-0.6-0.6-0.6c-0.3,0-0.6,0.3-0.6,0.6v37.5h-0.6V61.1c0-0.6,1.2-3.5,2.4-6.2h2.4C58,57.5,59.1,60.5,59.1,61.1z M56.8,49.9
		v3.8h-0.3v-4.1c0-0.9,0.3-1.8,1.2-2.1l30.7-12.1c1.5-0.6,2.4-1.8,2.4-3.2V16.5h-0.6c0,4.7,0,15.6,0,15.6v0.3c0,1.2-0.9,2.4-2.1,2.7
		L57.4,47.2c-0.9,0.3-1.5,1.2-1.5,2.4v4.1h-1.5v-4.1c0-1.5,0.9-2.9,2.4-3.5l31-12.1c0.9-0.3,1.5-0.9,1.5-1.8V13.3
		c0-0.9-0.6-1.5-1.5-1.8V9.4C89.8,9.7,91,11.2,91,13v19.2c0,1.5-1.2,2.9-2.7,3.5L58,48.1C57.1,48.4,56.8,49.3,56.8,49.9z"/>
	<path  d="M25.5,18.3h-5.6c-0.3,0-0.6,0.3-0.6,0.6c0,0.3,0.3,0.6,0.6,0.6h5.6c0.3,0,0.6-0.3,0.6-0.6
		C26.1,18.6,25.8,18.3,25.5,18.3z"/>
	<path  d="M90.1,13c0,0,0,0.3,0,0.3c0,0,0.6,0,0.6,0.3c0-1.5-0.9-2.7-2.1-3.2l-0.3,0.3c0.1,0,0.1,0.1,0.2,0.1l0.1-0.1
		C89.5,11.2,90.1,12.1,90.1,13z"/>
	<path  d="M88.5,10.7l-0.2,0.2c0.6,0.6,1.2,1.2,1.2,2.1v19.2h0.6c0,0,0-10.9,0-15.6c0-1,0-3.1,0-3.2
		C90.1,12.2,89.4,11.1,88.5,10.7z"/>
	<path  d="M78,18.3H28.2c-0.3,0-0.6,0.3-0.6,0.6c0,0.3,0.3,0.6,0.6,0.6H78c0.3,0,0.6-0.3,0.6-0.6
		C78.6,18.6,78.3,18.3,78,18.3z"/>
	<path  d="M90.1,16.5c0,4.7,0,15.6,0,15.6"/>
</g>

        </symbol>
      </svg>
    