
      <svg xmlns="http://www.w3.org/2000/svg">
        <symbol id="s" viewBox="0 0 100 100">
          

<path  d="M98,31.6H65.7c-1.2,0-1.6,0.8-1.8,1.6c0,0,0,0-0.2,0c0,0-0.2,0-1.8-0.6l-0.6-0.2c-2.2-0.8-7.8-2.6-11-2.6
	c-2.8,0-6,1.6-9.6,3.4c-1,0.6-2.2,1-3.2,1.6c-5,2.4-16.4,6.6-19,7.4c-2,0.6-6.6,0.6-8.4,0.6v-1c0-0.2-0.2-0.4-0.4-0.4
	s-5.6-1-9.4-0.4C0.2,41,0,41.2,0,41.6C0,42,0.2,42,0.4,42c3.2-0.4,7.2,0.2,8.4,0.4V68l0,0l0,0v1c-0.6,0.2-3.2,0.6-7.4,0.6
	C1.2,69.6,1,69.8,1,70s0.2,0.4,0.4,0.4c5.4,0,8-0.6,8.2-0.6c0.2,0,0.4-0.2,0.4-0.4v-0.8c1.8,0,5.6,0.4,9,1l1,0.2
	c2.2,0.4,3.8,0.8,5.8,0.8c1.4,0,3.2-0.2,5.4-0.6c6-1,10.6-2.2,10.6-2.2l0,0c2.4,1.4,5.8,2,6.6,2c0.2,0,0.4,0,0.6,0
	c2.4,0,9.2-1,11-4.6c3.2-1,6.4-2.8,7.4-4.2c0.8-1.2,0.6-3,0.6-3.6c0,0,0-0.2,0.2-0.2H98c1.2,0,2-1,2-3.2V35
	C100,33.6,100,31.6,98,31.6z M65.7,32.6H98c0.6,0,1,0.4,1,1.8v2H64.9v-2C64.9,32.8,65.1,32.6,65.7,32.6z M67.9,45
	c0.2,1,0.6,3.8-1.4,5.2h-4.4c-0.4-0.6-2.4-3.4,0.2-5.8C64.7,44.8,67.1,45,67.9,45L67.9,45z M31.5,68.6c-5.4,0.8-7.2,0.6-11-0.2
	l-1-0.2c-3.4-0.8-7.4-1-9-1v-24c0.4,0,1,0,1.6,0c2.2,0,5.2,0,6.8-0.6c2.8-0.8,14.4-5.2,19-7.4c1.2-0.6,2.2-1,3.2-1.6
	c3.6-1.8,6.6-3.2,9.2-3.4c3-0.2,8.4,1.8,10.6,2.6l0.6,0.2c1.8,0.6,2,0.6,2,0.6c0.2,0,0.2,0,0.4,0c0,0.2,0,0.4,0,0.6v9.6
	c-0.4,0-0.8,0-1.2,0c-0.4-0.2-3-1.2-4-2.8c-0.2-0.2-0.4-0.2-0.6,0c-0.2,0.2-0.2,0.4,0,0.6c0.6,0.8,1.4,1.4,2.4,2
	c-0.8,0-1.6-0.2-2.2-0.2c-2.6-0.4-6.4-0.6-9.2-0.8h-0.8c-2.6-0.2-3.6-0.4-3.6-0.4c-0.2,0-0.6,0-0.6,0.4c0,0.2,0,0.4,0.4,0.6
	c0,0,1,0.2,3.8,0.4h0.8c1.8,0.2,4.2,0.4,6.4,0.6c-0.4,0.8-0.8,2-0.4,3.8c0,0.2,0.2,0.4,0.4,0.4c0,0,0,0,0.2,0s0.4-0.4,0.4-0.6
	c-0.4-1.8,0.2-3,0.4-3.4c0.6,0,1.2,0.2,1.8,0.2c1,0.2,2.4,0.2,3.8,0.4c-2.4,2.8,0.2,6.2,0.2,6.2h0.2h4.6c0,0,0,0,0.2,0
	c2-1.2,2-3.4,1.8-4.8c0.6,0.8,0.6,1.8,0.4,2.6c-0.8,2.2-4,4-6.2,4.4l0,0h-0.2c-2.2,0.4-5.6,0-8.2-0.4c-1.4-0.2-2.6-0.4-3.4-0.4
	c-1.8,0-2.4,0-4.2,0.4c-0.4,0-1,0.2-1.6,0.2c-0.2,0-0.2,0-0.4,0c-0.4,0-0.8,0.2-1.4,0.2c-4.4,0.6-7.2-2.8-7.2-2.8
	c-0.2-0.2-0.4-0.2-0.6,0s-0.2,0.4,0,0.6c0.2,0.2,2.6,3.2,6.8,3.2c0.4,0,0.8,0,1.4-0.2l0,0c-6.4,5.8-19,6.8-19,7
	c-0.2,0-0.4,0.2-0.4,0.4c0,0.2,0.2,0.4,0.4,0.4l0,0c0.6,0,14.2-1.2,20.6-8c0.8-0.2,1.2-0.2,1.8-0.4c1.8-0.4,2.4-0.4,4-0.4
	c0.4,0,1,0,1.8,0.2c-2.2,0.6-4.6,2-5,4.6c-0.8,0-2.8-0.2-4,0.8c-0.8,0.6-1.4,1.4-1.6,2.4c-0.4,0.2-1.2,0.4-1.8,1.2
	c-0.4,0.6-0.6,1.4-0.4,2.2c0.2,0.8,0.6,1.6,1.4,2.2C39.7,67,35.9,67.8,31.5,68.6z M65.7,56.6h1.6c-0.2,0.2-0.6,0.2-1.2,0.2
	c-0.8,0-1.6-0.2-2-0.8c-0.8-0.8-1-1.8-1-2.4c0.2,0,0.2,0,0.4,0V54C63.5,55.8,64.3,56.6,65.7,56.6z M47.7,58.8c0,0.6,0.2,1,0.6,1.4
	c-1.4-1-3.4-1-3.6-1l0,0h-0.2C45.5,58.6,47.1,58.6,47.7,58.8z M49.1,59.8L49.1,59.8c-0.4-1-0.4-2.4,1.2-3.4c0.4,0,3.2,0,4.4,1.2
	c0.4,0.4,0.6,1.2,0.6,1.8c0,0.2,0,0.2,0.2,0.2s0.2,0,0.2-0.2c0.2-1,0-1.6-0.6-2.2c-1.4-1.6-4.6-1.4-4.8-1.4l0,0
	c-1.2,0.6-1.6,1.4-1.8,2.2c0.2-3.8,6.6-4.6,7.2-4.6c2.2,0.2,4.8,0.4,6.6,0.2c0,0.8,0.4,2,1.2,2.8c0.4,0.4,1,0.8,1.8,0.8
	c-1.2,0.8-3.6,2.6-5.2,2.8c-0.4,0-0.8,0-1.4,0.2C56.1,60.8,51.1,61.4,49.1,59.8z M48.9,68.4c-1.4-0.2-5.2-1-7.2-2.4
	c0.4,0.2,0.8,0.4,1.4,0.4h0.2c0.6,0,1.2-0.2,1.8-0.8c0,0,0.2-0.2,0-0.4c0,0-0.2-0.2-0.4,0c-0.4,0.4-1,0.6-1.6,0.6
	c-1.2,0-2-1-2.2-1.2c-0.2-1.2,0.4-2,1-2.2c0,0.6,0.4,1,0.8,1.4c1.6,1.6,5.2,2,8.6,2c3,0,5.8-0.4,7.2-0.6c0.2,0,0.4,0,0.6-0.2
	C56.9,67.8,50.7,68.6,48.9,68.4z M67.1,60c-0.8,1.4-5,3.6-8.6,4.2c-3.2,0.6-12.6,1.2-15-1.2l-0.2-0.2c0-0.8,0-2.8,1.6-3.2
	c0.4,0,2.6,0,3.8,1.4c0.4,0.6,0.6,1.2,0.6,2c0,0.2,0,0.2,0.2,0.2s0.2,0,0.2-0.2c0.2-1,0-1.8-0.6-2.4c1.2,0.8,3,1.2,4.8,1.2
	s3.8-0.2,5.2-0.4c0.6,0,1-0.2,1.4-0.2c2.4-0.2,6.2-3.4,6.4-3.4c0,0,0,0,0.2-0.2c0.4,0,0.6,0,0.8-0.2C67.5,58.2,67.5,59.2,67.1,60z
	 M98,55.8H65.7c-0.4,0-1.4,0-1.4-1.6v-0.8c2.2-0.8,4.6-2.4,5.4-4.6c0.4-1,0.4-2.8-1.4-4.6c0,0-0.2-0.2-0.4-0.2c0,0-1.4,0-3.2-0.2
	v-2.6h34.1v12.2C99,55.8,98.4,55.8,98,55.8z"/>

        </symbol>
      </svg>
    