
      <svg xmlns="http://www.w3.org/2000/svg">
        <symbol id="s" viewBox="0 0 100 100">
          

<g>
	<g>
		<path  d="M28.7,100c-1,0-1.8,0-2.4-0.2c-4.6-0.4-15.8-2.4-21-10.6c-0.8-1.2-2-3.6-2-5.4v-8c0-0.4,0.8-3.6,4.2-5
			c2-1,16.8-7.2,18-7.8c0.8-0.4,2.4-1,4.4-1c1.8,0,3.6,0.6,5,1.8c2.6,2,7.2,6,7.4,6.2l0,0c0,0,0.2,0,0.2-0.2
			c1.6-1,9.2-5.8,15.2-12.2c5.4-6.2,9.6-13.8,10.8-17.2c0.6-1.6,0.6-1.6-0.8-2.6l-0.6-0.4c-2-1.4-7.8-6.2-7.8-6.2
			c-1.4-1-3.8-4-1.8-8.4c1.4-3,7.8-16.2,8.8-18.4c0.6-1.8,2.2-3.8,5-4c0.2,0,0.4,0,0.8,0C73,0.2,73.8,0,75,0c5,0,9.4,1.8,13.2,5.2
			c6.8,6.2,10,19.4,8.2,26.3L96,32.1c-1.8,6.8-6.8,24.8-18.4,37.1C65.6,82,53.5,91.8,44.5,96C38.7,98.6,33.3,100,28.7,100z M9,76.8
			v7c0,0.2,0.6,1.4,1.2,2.2c4,6.2,13.6,7.6,16.6,7.8c0.4,0,1,0,1.8,0c3.8,0,8.2-1.2,13.2-3.4c8.2-3.8,20-13.4,31.3-25.5
			c10.4-11.2,15.2-28.3,17-34.7l0.2-0.6c1.2-4.4-1.2-15.4-6.4-20.2c-2.6-2.4-5.6-3.6-9.2-3.6c-0.8,0-1.6,0-2.2,0.2
			c-0.2,0-0.6,0-0.8,0l-0.2,0.4c0,0.2-7.6,15.4-9,18.6c-0.4,0.8-0.2,1,0,1.2c0,0,6,4.8,8,6.2l0.4,0.4c1.8,1.4,4.8,3.6,2.8,9.2
			c-1.6,4.8-6.2,12.8-12,19.4C55.3,68.7,46.9,73.9,45.3,75c-1,0.6-2.2,1-3.4,1c-2,0-3.4-1-4-1.6c-0.6-0.6-4.8-4.2-7-5.8
			c-1-0.8-2.6-0.2-3.4,0.2c-1.2,0.6-15.8,6.8-18,7.6C9.4,76.4,9.2,76.6,9,76.8z"/>
	</g>
</g>

        </symbol>
      </svg>
    