
      <svg xmlns="http://www.w3.org/2000/svg">
        <symbol id="s" viewBox="0 0 100 100">
          

<g>
	<path  d="M4.1,4.4c-0.3,0-0.7,0-0.7,0.3c0,0.3,0,0.7,0.3,0.7c15.4,1.7,28,12.6,32.1,27.6c0,0.3,0,0.3,0.3,0.3
		c0.3,0,0.3-0.3,0.3-0.7C32.8,17.4,19.8,6.1,4.1,4.4z"/>
	<path  d="M35.8,35.5c0,1.4,0.3,2.7,0.3,4.1c0.3,0,0.3,0.3,0.7,0.3c0,0,0.3-0.3,0.3-0.7c0-1.4,0-2.7-0.3-4.1
		c0-0.3-0.3-0.3-0.7-0.3C35.8,34.8,35.8,35.2,35.8,35.5z"/>
	<path  d="M53.9,76.1c0-0.3-0.3-0.7-0.7-0.7c-7.5,0-14.3-5.5-15.7-13c0-0.3-0.3-0.3-0.7-0.3c-0.3,0-0.3,0.3-0.3,0.7
		c1.4,8.2,8.5,14,16.7,14C53.6,76.8,53.9,76.5,53.9,76.1z"/>
	<path  d="M29.7,58C30,58,30,57.7,29.7,58L29.7,58z"/>
	<path  d="M70,30.4c0.3,0,0.7-0.3,0.7-0.7v-7.8c0-0.3-0.3-0.7-0.7-0.7c-0.3,0-0.7,0.3-0.7,0.7v7.8
		C69.3,30,69.6,30.4,70,30.4z"/>
	<path  d="M70,90.1c0.3,0,0.3,0,0.3,0C81.6,84,88.4,72,88.4,59.4c0-0.3-0.3-0.7-0.7-0.7c-0.3,0-0.7,0.3-0.7,0.7
		c0,12.3-6.8,23.9-17.7,29.7c-0.3,0.3-0.3,0.7,0.3,0.7C69.6,90.1,69.6,90.1,70,90.1z"/>
	<path  d="M61.1,94.5c-2.7,0.3-5.1,0.7-7.8,0.7c-0.3,0-0.7,0.3-0.7,0.7c0,0.3,0.3,0.7,0.7,0.7c2.7,0,5.1-0.3,7.8-1
		c0.3,0,0.7-0.3,0.7-0.7C61.8,94.5,61.4,94.5,61.1,94.5z"/>
	<path  d="M28.7,57.7C28.7,58,29,58,29,58h0.7c0.3-0.3,0.3-0.7,0-0.7H29C28.7,57.3,28.7,57.7,28.7,57.7z"/>
	<path  d="M86.7,4.1H85c-0.3,0-0.7,0.3-0.7,0.7V14c0,0.3,0.3,0.7,0.7,0.7h1.7h0.7h1.7V4.1h-1.7H86.7z M86.7,13.7h-1V5.5
		h1V13.7z M88.1,5.5v8.2V5.5z"/>
	<path  d="M99.3,4.1h-0.7c-0.3-1-1.4-1.7-2.7-1.7H65.2c-1.4,0-2.4,0.7-2.7,1.7h-0.7c-0.3,0-0.7,0.3-0.7,0.7V14
		c0,0.3,0.3,0.7,0.7,0.7h0.7c0,1,1,2,2.4,2v1v0.3l1,1h0.3h0.3V59c0,7.2-5.8,13-13,13c-6.8,0-12.6-5.5-13-12.3H41h0.3l1-1v-0.3V57
		c1,0,2.4-1,2.4-2h0.7c0.3,0,0.7-0.3,0.7-0.7v-9.2c0-0.3-0.3-0.7-0.7-0.7h-0.7c-0.3-1-1-1.7-2.4-1.7v-1v-0.3l-1-1H41h-0.3
		c0-21.8-18.1-39.6-39.9-39.6H0v27h0.7c6.8,0,12.6,5.8,13,12.6H13h-0.3l-1,1v0.3v1h29v0.7H24.2c0,0,0-0.3-0.3-0.3h-0.7
		c0,0-0.3,0-0.3,0.3c0,0,0-0.3-1-0.3H11.6v-0.3c-1,0-2,0.7-2.4,1.7H8.5c-0.3,0-0.7,0.3-0.7,0.7v9.2c0,0.3,0.3,0.7,0.7,0.7h0.7
		c0,1,1,2,2.4,2v1.4v0.3l1,1H13h0.7c0,21.8,18.1,39.6,39.9,39.6c21.8,0,39.9-17.7,39.9-39.9V19.1h0.7h0.3l1-1v-0.3v-1
		c1,0,2.4-1,2.4-2h0.7c0.3,0,0.7-0.3,0.7-0.7l0.7-9.2C100,4.4,99.7,4.1,99.3,4.1z M61.4,13.7V5.5V13.7z M14.7,41
		C14.3,33.4,8.2,27.6,1,27.3V2.4C21.8,2.7,39.2,19.8,39.2,41H14.7z M8.2,54.6v-8.2V54.6z M11.3,56.7c-0.7,0-1-0.3-1.4-0.7h17.4
		c0,0,0.3,0,0.3-0.3c0,0,0,0.3,0.3,0.3h1.7c0.3,0,0.7-0.3,0.7-0.7c0-0.3-0.3-0.7-0.7-0.7H28c0,0-0.3,0-0.3,0.3c0,0,0-0.3-0.3-0.3
		h-5.5v-8.9c0-0.3-0.3-0.7-0.7-0.7h-2h-1c-0.3,0-0.7,0.3-0.7,0.7v8.9H9.6v-8.9c0-0.3,0.7-1,1.7-1h0.3h20.5h1.7h0.7h1.7h5.5H42
		c1,0,1.7,0.3,1.7,1v9.2v0.3c0,0.3-0.7,1-1.7,1l-0.3,0.3h-30H11.3z M18.4,54.6v-8.2V54.6z M19.5,54.6v-8.2h1v8.2H19.5z M11.9,58
		v-0.7H29h0.7h1H41H30.7c-0.3,0-0.3,0.3-0.3,0.3c0,0.3,0.3,0.3,0.3,0.3H41H30.7h-1H29H11.9z M92.5,59.4c0,21.5-17.4,38.9-38.9,38.9
		c-21.2,0-38.6-17.4-38.9-38.6h24.9c0.3,7.5,6.5,13.7,14,13.7c7.8,0,14-6.1,14-14V19.1h21.8v40.6c0,15-9.6,28.7-23.9,33.8
		c-0.3,0-0.3,0-0.3,0.3c0,0.3,0,0.3,0,0.3c0,0.3,0,0.3,0.3,0.3c14.7-5.1,24.6-19.1,24.6-34.8V19.1h2.4V59.4z M84,17.1h10.2H84h-0.7
		c0,0.3,0,0.3-0.3,0.3h-0.7c-0.2-0.2-0.3-0.3-0.3-0.3H65.2v-0.7H84h10.2H84c-0.3,0-0.3,0-0.3,0.3C83.6,17.1,84,17.1,84,17.1z
		 M96.9,14.3v0.3c0,0.3-0.7,1-1.7,1h-0.3h-30h-0.3c-0.7,0-1-0.3-1.4-0.7h17.4c0,0,0.3,0,0.3-0.3c0,0,0,0.3,0.3,0.3h1.7
		c0.3,0,0.7-0.3,0.7-0.7s-0.3-0.7-0.7-0.7h-1.7c0,0-0.3,0-0.3,0.3c0,0,0-0.3-0.3-0.3h-5.5V4.8c0-0.3-0.3-0.7-0.7-0.7h-2h-1
		c-0.3,0-0.7,0.3-0.7,0.7v8.9h-7.8V4.8c0-0.3,0.7-1,1.7-1h30.7c1,0,1.7,0.7,1.7,1.4V14.3z M71.3,13.7V5.5V13.7z M72.7,13.7V5.5h1
		v8.2H72.7z"/>
	<path  d="M82.9,16.7h-0.7C82.1,16.9,82,17,82,17.1h1.3C83.3,16.7,82.9,16.7,82.9,16.7z"/>
	<path  d="M31.4,45.4v9.2c0,0.3,0.3,0.7,0.7,0.7h1.4h0.7h1.7l0.3-10.6h-1.7h-0.7h-1.7C31.7,44.7,31.4,45.1,31.4,45.4z
		 M34.8,46.4v8.2V46.4z M32.4,46.4h1v8.2h-1V46.4z"/>
</g>

        </symbol>
      </svg>
    