
      <svg xmlns="http://www.w3.org/2000/svg">
        <symbol id="s" viewBox="0 0 127.8 151.9">
          

<g>
	<path  d="M98.3,74.7l13.4-3.2l-7.2-11.7l11.1-8.1l-11.1-8.1l7.2-11.7l-13.4-3.2l2.2-13.6l-13.6,2.2L83.7,3.9L72,11.1
		L63.9,0l-8.1,11.1L44.1,3.9l-3.2,13.4l-13.6-2.2l2.2,13.6l-13.4,3.2l7.2,11.7l-11.1,8.1l11.1,8.1l-7.2,11.7l13.4,3.2l-1.7,10.9
		l-14.8,55.3l22.8-3.2L54,151.9l9.9-37.1l9.9,37.1L92,137.7l22.8,3.2L100,85.6L98.3,74.7z M24.6,68l5.9-9.7l-9.2-6.6l9.2-6.6
		l-5.9-9.7l11-2.6l-1.8-11.2L45,23.4l2.6-11l9.6,5.9l6.6-9.2l6.6,9.2l9.7-5.9l2.6,11L94,21.6l-1.8,11.2l11,2.6L97.3,45l9.2,6.6
		l-9.2,6.6l5.9,9.7l-7.5,1.8l-3.6,0.9L94,81.8l-0.6-0.1L82.8,80l-2.6,11l-8.5-5.2l-1.1-0.7l-6.6,9.2l0,0l-6.6-9.1l-1.1,0.7L47.6,91
		L45,80l-10.6,1.7l-0.6,0.1l1.8-11.2L32,69.8L24.6,68z M50.9,142.7l-13.6-10.6l-17.1,2.4l12.6-47.1l8.1-1.3l3.2,13.4l11.7-7.2
		l3.2,4.4l2.1,7.8L50.9,142.7z M90.5,132.1l-13.6,10.6l-10.2-38.2l2.1-7.8l3.2-4.4l11.7,7.2l3.2-13.4l8.1,1.3l12.6,47.1L90.5,132.1z
		"/>
	<path  d="M37.4,70.4c4.3,6.1,10.7,10.6,18,12.6c1.9,0.5,3.8,0.9,5.8,1c0.9,0.1,1.8,0.1,2.7,0.1c0.9,0,1.8-0.1,2.7-0.1
		c2-0.2,3.9-0.5,5.8-1c7.4-2,13.7-6.5,18-12.6c1.5-2.1,2.7-4.4,3.7-6.8c1.5-3.7,2.3-7.7,2.3-11.9c0-17.9-14.6-32.5-32.5-32.5
		c-17.9,0-32.5,14.6-32.5,32.5c0,4.2,0.8,8.2,2.3,11.9C34.6,66,35.9,68.3,37.4,70.4z M63.9,24.5c15,0,27.2,12.2,27.2,27.2
		c0,4.6-1.1,8.8-3.1,12.6c-1.4,2.6-3.1,4.9-5.2,6.9c-2.5,2.4-5.4,4.3-8.7,5.7c-1.9,0.8-3.9,1.3-6,1.6c-1.4,0.2-2.8,0.4-4.2,0.4
		c-1.4,0-2.8-0.1-4.2-0.4c-2.1-0.3-4.1-0.9-6-1.6c-3.3-1.3-6.2-3.3-8.7-5.7c-2.1-2-3.9-4.3-5.2-6.9c-2-3.8-3.1-8.1-3.1-12.6
		C36.7,36.7,48.9,24.5,63.9,24.5z"/>
</g>

        </symbol>
      </svg>
    