
      <svg xmlns="http://www.w3.org/2000/svg">
        <symbol id="s" viewBox="0 0 141.4 151.9">
          

<path  d="M130.2,33.4l-8.5-8.5c-0.8-0.8-1.8-1.1-2.8-0.5c0,0-2.8,0.8-8.6-5.1l-0.6-0.6c-2-2-4.6-4.5-4.6-5.8
	c0-0.1,0-0.3,0.4-0.7c1-1,1-2.5,0-3.5l-8.1-8.1c-0.6-0.6-1.6-0.9-2.4-0.7c-1.6,0.3-2.1,1.7-2.6,2.9c-0.1,0.3-0.3,0.6-0.1,0.5
	L78,17.8c-0.1,0-0.3,0.1-0.4,0.1c-0.9,0.2-2.3,0.7-2.8,2.2C74.6,21,75,22,75.6,22.6l8.1,8.1c1,1,2.5,1,3.5,0
	c0.5-0.5,1.1-0.9,2.6-0.3c1.4,0.6,3.3,2,5.4,4.1c5.2,5.2,7.6,8.3,0.7,17.7c-0.6,0.9-0.6,2,0,2.9l-5.3,5.3L67,84.1L38,55
	c1-5.2,0.9-13.8-4.7-19.4c-5.5-5.5-13.8-7.2-21.1-4.2c-0.8,0.3-1.3,1-1.5,1.8c-0.2,0.8,0.1,1.7,0.7,2.2l12,12l-0.7,5l-5,0.7L5.6,41
	c-0.6-0.6-1.4-0.8-2.2-0.7c-0.8,0.2-1.5,0.7-1.8,1.5c-3.1,7.3-1.5,15.7,4.2,21.3c5.5,5.5,14.3,5.6,19.6,4.6l29,29l-34.4,34.4
	c-1,1-1,2.5,0,3.5l9.2,9.2c0.5,0.5,1.1,0.7,1.7,0.7s1.3-0.2,1.7-0.7L67,109.5l17.9,17.9c-1,5.2-0.9,13.8,4.7,19.4
	c3.9,3.9,9.5,5.1,14.2,5.1c2.5,0,4.8-0.3,6.5-0.8c0.9-0.2,1.5-0.9,1.8-1.7c0.2-0.9,0-1.8-0.6-2.4l-12-12l0.7-5l5-0.7l12.1,12.1
	c0.6,0.6,1.5,0.9,2.4,0.6c0.9-0.2,1.5-0.9,1.7-1.7c1.7-6.4,1.1-15.6-4.3-21c-5.5-5.5-14.3-5.6-19.6-4.6L79.7,96.8l23.6-23.6l6.2-6.2
	c0.2-0.1,0.4,0,0.6-0.1l14.2-7.9l4.5,4.5c1.9,2.1,2.7,18.2,2.2,31.8c0,0.7,0.2,1.3,0.7,1.8l2.1,2.1c0.5,0.5,1.1,0.7,1.7,0.7
	c0.2,0,0.4,0,0.6-0.1c0.9-0.2,1.5-0.9,1.7-1.7C144.7,72.4,141.4,44.6,130.2,33.4z M27.8,63.3c-0.6-0.6-1.5-0.9-2.4-0.6
	c-3.6,0.9-11.7,1.5-16.2-3c-3.3-3.3-4.8-7.8-4.2-12.2l10,10c0.5,0.5,1.3,0.8,2.1,0.7l8.1-1.2c1.1-0.2,1.9-1,2.1-2.1l1.1-8.1
	c0.1-0.8-0.1-1.5-0.7-2.1L17.9,35c4.3-0.5,8.7,1,11.9,4.1c4.2,4.2,4.2,12,3.1,16.1c-0.2,0.8,0,1.7,0.6,2.4l30,30l-5.7,5.7L27.8,63.3
	z M95.1,119.1c0.6,0.6,1.5,0.9,2.4,0.6c4.2-1.1,12.1-1.2,16.2,3c3,3,3.8,7.7,3.7,11.7l-9.5-9.5c-0.5-0.5-1.3-0.8-2.1-0.7l-8.1,1.2
	c-1.1,0.2-1.9,1-2.1,2.1l-1.1,8.1c-0.1,0.8,0.1,1.5,0.7,2.1l9.3,9.4c-3.8,0.1-8.4-0.6-11.4-3.7c-4.2-4.2-4.2-12-3.1-16.1
	c0.2-0.8,0-1.7-0.6-2.4L70.5,106l5.7-5.7L95.1,119.1z M30.9,138.6l-5.7-5.7l67.2-67.2l2.9,2.9l2.9,2.9L30.9,138.6z M101.6,68
	l-2.9-2.9l-2.9-2.9l3.5-3.5l5.7,5.7L101.6,68z M136,80.8c-0.2-8.9-1.1-18.2-3.7-20.8l-5.8-5.8c-0.5-0.5-1.1-0.7-1.7-0.7
	c-0.4,0-0.8,0.1-1.2,0.3l-14.2,7.9l-8.2-8.2c7.3-11.1,3.4-16.5-2.4-22.4c-2.7-2.7-4.9-4.3-7-5.2c-2.1-0.9-4.2-0.9-6-0.1l-4.3-4.3
	L95.9,6.9c0.1-0.1,0.3-0.3,0.4-0.4l4.4,4.4c-0.3,0.7-0.4,1.4-0.4,2.2c0,3.2,2.8,6,6,9.2l0.6,0.6c5.9,5.9,10,6.8,12.3,6.5l7.5,7.5
	C134.4,44.6,137.8,62.2,136,80.8z"/>

        </symbol>
      </svg>
    