
      <svg xmlns="http://www.w3.org/2000/svg">
        <symbol id="s" viewBox="0 0 127.8 151.9">
          

<g>
	<g>
		<path  d="M63.9,151.9l-1.7-0.8C59.6,150,0,123.1,0,88.1V17.6l0.8-1.1C8.8,5.8,40.5,0,66.4,0c28.9,0,53.3,6.6,60.6,16.5
			l0.8,1.1v70.5c0,35-59.6,61.9-62.2,63L63.9,151.9z M8.5,20.6v67.5c0,26.6,45.8,49.8,55.4,54.4c9.6-4.6,55.4-27.9,55.4-54.4V20.6
			c-5.9-6-25.7-12.1-52.9-12.1C38.9,8.5,14.8,14.7,8.5,20.6z"/>
	</g>
	<g>
		<polygon  points="57.1,104.7 27.5,75.1 36.6,66.1 57.1,86.7 102.8,41 111.8,50.1 		"/>
	</g>
</g>

        </symbol>
      </svg>
    