
      <svg xmlns="http://www.w3.org/2000/svg">
        <symbol id="s" viewBox="0 0 100 100">
          

<g>
	<path  d="M76.5,12c0-0.6-0.3-1.2-0.9-1.9C75,9.3,73.8,9,72.8,9c-0.9,0-2.2,0.6-2.8,1.2c-1.9,2.2-1.9,5.2,0,6.8
		c0.9,1.2,2.8,1.9,4.3,1.9c0.3,0,0.3,0,0.3-0.3c0-0.3,0-0.3-0.3-0.3c-1.5,0-3.1-0.6-4-1.5c-1.9-1.5-1.9-4.3,0-6.2
		c0.6-0.6,1.5-0.9,2.5-0.9c0.6,0,1.2,0.2,1.7,0.5c0.5,0.1,0.9,0.4,1.3,0.8C76.2,11.1,76.5,11.7,76.5,12z"/>
	<path  d="M83,11.4c0-2.5-0.9-4.6-2.8-6.5c-1.9-1.5-4.3-2.8-6.8-3.1l-0.3,0.3c0,0,0,0.3,0.3,0.3c2.2,0.3,4.3,1.2,6.2,3.1
		c1.5,1.9,2.5,3.7,2.5,6.2s-0.9,4.6-2.5,6.2c-1.2,1.5-3.1,2.2-4.9,2.2c-1.9,0-3.7-0.9-4.9-2.2h-0.2c0.1,0.1,0.2,0.2,0.2,0.3
		c1.5,1.5,3.2,2.1,5.2,2.1c1.8-0.1,3.5-0.7,5-2.1C81.8,16.4,83,13.9,83,11.4z"/>
	<path  d="M77.8,12c0-0.3-0.3-0.3-0.3-0.3c-0.3,0-0.3,0-0.3,0.3c0,0.3,0,0.3,0,0.3h-0.3c-0.1,0-0.2,0-0.2,0
		c0.1,0.2,0.2,0.5,0.4,0.6c0.1,0,0.2-0.1,0.5-0.3C77.8,12.7,77.8,12.3,77.8,12z"/>
	<path  d="M17.9,11.4c-0.3,0-0.3,0-0.3,0.3c0,2.5,0.9,4.6,2.8,6.5c1.2,1.2,3.4,2.2,5.2,2.2c1.9,0,3.7-0.6,5.2-2.2
		c2.5-2.2,2.5-6.2,0-8.6C29.9,8.6,28.4,8,27.1,8c-0.3,0-0.3,0-0.3,0.3c0,0.3,0,0.3,0.3,0.3c1.2,0,2.2,0.3,3.1,1.2
		c0.9,1.2,1.5,2.5,1.5,4s-0.6,3.1-1.5,4c-1.2,1.2-3.1,1.9-4.6,2.2c-1.9,0-3.7-0.9-4.9-2.2c-1.5-1.9-2.5-4-2.5-6.2
		C18.2,11.4,18.2,11.4,17.9,11.4z"/>
	<path  d="M81.5,12c0.3,0,0.3,0,0.3-0.3c0-2.2-0.9-4-2.5-5.6c-1.5-1.5-3.7-2.5-5.9-2.8H27.1h-0.3
		c-2.2,0.3-4.3,1.2-5.9,2.8c-1.5,1.5-2.5,3.4-2.5,5.6s0.9,4,2.5,5.6c0.9,1.2,2.8,1.9,4.3,1.9c0.3,0,0.3,0,0.3-0.3
		c0-0.3,0-0.3-0.3-0.3c-1.5,0-3.1-0.6-4-1.5c-1.5-1.5-2.2-3.4-2.2-5.2s0.6-3.7,2.2-5.2c1.5-1.5,3.4-2.5,5.6-2.8h46.3
		c2.2,0.3,4,1.2,5.6,2.8c0.1,0.1,0.1,0.1,0.1,0.2c0.1,0,0.1,0.1,0.2,0.1c1.2,1.2,2.2,3.1,2.2,4.9C81.2,12,81.2,12,81.5,12z"/>
	<path  d="M58.6,97.8h16c0.3,0,0.3,0,0.3-0.3c0-0.3,0-0.3-0.3-0.3H58.3C58,97.8,58.3,97.8,58.6,97.8z"/>
	<path  d="M29.9,10.5c-0.6-0.9-1.9-1.2-2.8-1.2c-0.9,0-2.2,0.6-2.8,1.2c-0.6,0.3-0.9,1.2-0.9,1.9c0,0.3,0,0.3-0.3,0.3
		c-0.3,0-0.3,0-0.3-0.3c0,0,0-0.3-0.3-0.3c0,0-0.3,0-0.3,0.3c0,0.1,0,0.2,0.1,0.3c0.1,0.3,0.4,0.6,0.9,0.6c0.6,0,0.9-0.3,0.9-0.9
		c0-0.6,0.3-1.2,0.6-1.5c0.6-0.6,1.5-0.9,2.5-0.9c0.1,0,0.1,0,0.2,0c0.8,0,1.6,0.2,2.3,0.9h0.3C29.9,10.5,29.9,10.5,29.9,10.5z"/>
	<path  d="M76.6,12.3c0-0.1-0.1-0.2-0.1-0.3C76.5,12.2,76.5,12.3,76.6,12.3z"/>
	<path  d="M73.4,0h-0.3H26.8h-0.3c-2.8,0.3-5.2,1.5-7.4,3.7C17.3,5.9,16,8.6,16,11.4c0,3.1,0.9,5.6,3.1,7.7
		c1.9,1.9,4,2.8,6.5,2.8c1.9,0,3.4-0.6,4.9-1.5l0.6,2.2V88l-3.7,2.5h-1.2c-0.3,0-0.6,0.3-0.6,0.6v2.2c-1.5,0.3-5.6,1.5-5.6,6.2
		c0,0.3,0.3,0.6,0.6,0.6h27.8h2.5h27.8c0.3,0,0.6-0.3,0.6-0.6c0-4.3-3.7-5.9-5.2-6.2v-2.2c0-0.3-0.3-0.6-0.6-0.6h-1.2L68.5,88V22.5
		l1.2-2.2c1.5,0.9,3.1,1.5,4.9,1.5c2.5,0,4.6-0.9,6.5-2.8c1.9-1.9,3.1-4.6,2.8-7.7c0-3.1-0.9-5.6-3.1-7.7C79,1.5,76.2,0.3,73.4,0z
		 M26.5,92.9h46v0.3h-46V92.9z M76.2,95.7H46c-0.3,0-0.6,0.3-0.6,0.6c0,0.3,0.3,0.6,0.6,0.6h31.5c0.3,0.6,0.6,1.2,0.6,2.2H50.9h-2.5
		H21.3c0.3-3.7,4.3-4.6,4.9-4.6h46.9C73.4,94.4,75,94.8,76.2,95.7z M72.8,91.7v0.6H26.5v-0.6h0.9h44.4H72.8z M69.4,89.8l0.6,0.6
		H29.3l2.5-1.9h36.1l0.6,0.6l-17.6,0.3L69.4,89.8z M32.1,87.3V22.8h2.5v64.5H32.1z M35.8,87.3V22.8H42v64.5H35.8z M43.2,87.3V22.8
		h7.1v64.5H43.2z M51.5,87.3V22.8h1.5v64.5H51.5z M54.3,87.3V22.8h3.4v64.5H54.3z M58.9,87.3V22.8h0.6v64.5H58.9z M60.8,87.3V22.8
		h2.5v64.5H60.8z M64.8,87.3V22.8h0.3v64.5H64.8z M66,87.3V22.8h1.2v64.5H66z M68.2,20.7H50.3c-0.3,0-0.3,0-0.3,0.3s0,0.3,0.3,0.3
		h17.6l-0.3,0.6H32.1l-0.6-1.9h37L68.2,20.7z M66,14.8c0.3,1.5,0.9,2.8,1.9,4H32.1c0.9-1.2,1.5-2.5,1.9-4H66z M33.9,14.2
		c0,0,0-0.3,0-0.6H66c0,0.3,0,0.3,0,0.6H33.9z M80.8,18.2c-1.5,1.2-3.4,2.2-5.6,2.2c-0.1,0-0.2,0-0.3,0c-0.1,0-0.2,0-0.3,0
		c-1.9,0-4-0.9-5.2-2.2v-0.3h0.1c-2.2-2.5-2.1-6.6,0.2-9c1.2-0.9,2.5-1.5,4-1.5c1.5,0,3.1,0.6,4,1.5C78.4,9.9,79,10.8,79,12
		c0,0.6-0.6,1.2-1.2,1.2c-0.3,0-0.5-0.1-0.8-0.3c0,0-0.1,0-0.2,0c-0.6,0-0.9-0.3-0.9-0.9c0-0.6-0.3-1.2-0.6-1.5
		c-0.2-0.2-0.5-0.3-0.7-0.5c-1-0.3-2.1-0.1-3,0.8c-1.5,1.5-1.5,4.3,0,5.9c0.9,0.9,2.2,1.5,3.7,1.5c1.2,0,2.8-0.6,3.7-1.5
		c1.5-1.2,2.2-3.1,2.2-4.9c-0.3-2.1-1.2-3.8-2.3-5.1c-1.2-1.2-3-2-5.1-2.3H27.5c-1.9,0-3.7,0.9-5.2,2.5c-1.4,1.1-2,2.8-2.1,4.5
		c0.3-1.5,0.9-3,1.8-3.8c1.2-1.2,3.1-1.9,4.6-2.2h46c1.9,0,3.4,0.9,4.6,2.2c1.2,1.2,1.9,2.5,1.9,4c0-1.2-0.6-2.2-1.5-3.1
		c-1.2-1.2-2.8-1.9-4.6-1.9c-1.5,0-3.4,0.6-4.6,1.9c-1.2,0.9-1.9,2.5-2.2,4H33.9c-0.3-1.2-0.9-2.8-2.2-4c-1.2-1.2-2.8-1.9-4.6-1.9
		c-1.9,0-3.7,0.6-5.6,1.9c-0.9,0.6-1.2,1.8-1.5,2.9c0,0.2,0,0.3,0,0.5c0,1.9,0.9,3.7,2.2,4.9c0.9,0.9,2.5,1.5,3.7,1.5
		c1.2,0,2.8-0.6,3.7-1.5c1.5-1.5,1.5-4.3,0-5.9c-0.6-0.6-1.4-0.9-2.3-0.9c-0.7,0-1.4,0.3-2,0.9c-0.3,0.6-0.6,0.9-0.6,1.5
		c0,0.6-0.6,1.2-1.2,1.2c-0.5,0-1-0.4-1.2-0.9c0-0.1-0.1-0.2-0.1-0.3c0-1.2,0.3-2.2,1.2-3.1c0.9-0.9,2.2-1.5,3.7-1.5s3.1,0.6,4,1.5
		c2.5,2.5,2.5,6.8,0,9.3c-1.5,1.2-3.4,2.2-5.6,2.2c-2.2,0-4-0.6-5.6-2.2c-1.9-1.9-2.8-4.3-2.8-6.8s0.9-4.9,2.8-6.8
		c1.9-1.9,4.3-3.1,6.8-3.4h46.5c0,0,0.1,0,0.1,0c2.5,0.3,4.9,1.5,7.4,3.1c1.9,1.9,2.8,4.3,2.8,6.8C83.6,13.9,82.7,16.4,80.8,18.2z
		 M79.3,13.3c-0.3,0.9-0.9,1.9-1.5,2.5c-0.9,0.9-1.9,1.2-3.1,1.2c-1.2,0-2.5-0.6-3.1-1.2c-1.2-1.2-1.2-2.8,0-4
		c0.3-0.3,0.6-0.6,1.2-0.6c0.3,0,0.9,0.3,1.2,0.6l0.3,0.3c0,1.5,1.2,2.4,2.7,2.5C78.1,14.5,78.7,14.1,79.3,13.3z M22.8,14.5
		c0.3,0,0.3,0,0.3,0c1.2,0,2.5-0.9,2.5-2.2c0-0.3,0-0.3,0.3-0.6c0.6-0.6,1.9-0.6,2.5,0c1.2,1.2,1.2,2.8,0,4
		c-0.9,0.9-1.9,1.2-3.1,1.2c-0.9,0-2.2-0.3-2.8-1.2c-0.9-0.6-1.2-1.5-1.5-2.5C21.3,13.9,21.9,14.5,22.8,14.5z"/>
	<path  d="M28.1,15.7c0.9-1.2,0.9-2.8,0-3.7c0,0-0.6-0.3-0.9-0.3c-0.3,0-0.6,0-0.9,0.3c-0.3,0-0.3,0-0.3,0.3
		c0,0.6-0.3,1.2-0.9,1.9c-0.6,0.3-1.2,0.6-2.2,0.6h-0.9l0.6,0.6c0,0.3,0,0.3,0,0.3c0.6,0.6,1.5,0.9,2.8,0.9
		C26.5,16.7,27.5,16.4,28.1,15.7z M25.3,14.8c0.6-0.6,1.2-1.5,1.2-2.5c0-0.3,0.3-0.3,0.6-0.3c0.3,0,0.3,0,0.6,0.3
		c0.6,0.9,0.6,2.2,0,2.8c-0.6,0.6-1.5,0.9-2.5,1.2c-0.6,0-1.2-0.3-1.9-0.6C24.1,15.4,24.7,15.1,25.3,14.8z"/>
	<path  d="M71.9,11.7c-0.9,0.9-0.9,2.8,0,3.7c0.6,0.6,1.9,0.9,2.8,0.9c0.9,0,2.2-0.3,2.8-0.9l0.6-0.6h-0.9
		c0,0-0.3,0,0-0.3c0,0-0.1,0-0.1,0c-0.1,0-0.1,0-0.2,0c-1.2,0-2.5-0.9-2.5-2.2c0-0.3,0-0.3-0.3-0.6C73.4,11.1,72.5,11.1,71.9,11.7z
		 M76.2,15.4c-0.9,0.9-3.1,0.6-4-0.3c-0.6-0.9-0.6-2.2,0-2.8c0.3-0.3,0.3-0.3,0.6-0.3c0.3,0,0.3,0,0.6,0.3
		C73.8,13.9,75,15.4,76.2,15.4z"/>
	<path  d="M53.1,97.8h3.7c0.3,0,0.3,0,0.3-0.3c0-0.3,0-0.3-0.3-0.3h-3.7C52.8,97.8,52.8,97.8,53.1,97.8z"/>
</g>

        </symbol>
      </svg>
    