
      <svg xmlns="http://www.w3.org/2000/svg">
        <symbol id="s" viewBox="0 0 100 100">
          

<g>
	<path  d="M73.8,55.6"/>
	<path  d="M73.8,65"/>
	<path  d="M73.8,55.6"/>
	<g>
		<polygon  points="46.4,71.2 44.4,92.2 55.6,92.2 53.6,71.2 		"/>
		<path  d="M94.4,69.8c0-0.4-0.6-1.2-3-2.2c-2.4-1.2-22.6-9.4-24.6-10.2c-0.4-0.6-1.6-2.8-2.4-4.6
			c-0.6-1.6-1.2-2.4-1.4-2.8l-0.2,0.2C63,50,63,49.6,63,49.4l0.2,0.6c0.2-0.2,6.8-3.2,6.8-13.4h-0.2l0,0c0-0.2-0.2-0.4-0.2-0.6v-0.6
			c0-0.6-0.4-1-1-1.2c0-0.4-0.2-0.6-0.2-0.8V28c0-19.2-15-20.2-18-20.2c-0.2,0-0.4,0-0.4,0s-0.2,0-0.4,0c-3,0-18,1-18,20.2v5.4
			c-0.2,0.4-0.2,0.8-0.4,1.4L31,35.2h0.2v3l0,0v0.4c0.2,1.4,0.6,2.2,1.2,2.4l0,0h0.2h0.2h0.4v0.4c0,0.6,0.6,1.2,1.2,1.2
			c0.2,0,0.2,0,0.4,0c0.2,0.2,0.4,0.2,0.6,0.2c0.4,1.8,1,3.6,1.8,5.8L37,49.8c-0.2,0.4-0.8,1.2-1.6,3c-0.8,1.8-2,4-2.4,4.6
			c-2.2,0.8-22.2,9-24.6,10.2c-2.4,1-2.8,1.8-3,2.2L0,91.6L1,92l5.6-21.8c0,0,0.4-0.6,2.4-1.6c2.2-1,21.2-8.8,24.4-10.2L41.8,74
			l0.4-1c0.6-1.2,1.8-3,3-4.8l1.2,2.4H50h3.6l1.2-2.4c1.4,1.8,2.6,3.8,3,4.8l0.4,1l8.4-15.6c3.2,1.4,22,9,24.4,10.2
			c2,1,2.4,1.4,2.4,1.4L99,92l1-0.2L94.4,69.8z M62.8,49c-0.2-0.4-0.4-0.8-0.6-1l0.6,0.2c0.8-2.4,1.4-4.2,1.6-5.4
			c0.2,0,0.4-0.2,0.6-0.2s0.2,0,0.4,0c0.6,0,1.2-0.6,1.2-1.2V41H67h0.2h0.2l0,0c0.6-0.2,1-0.8,1.2-2h0.2C68,46,63.6,48.6,62.8,49z
			 M68,39c-0.2,0.6-0.4,1-0.6,1.4v-7h0.4c0,0.2,0.2,0.4,0.2,0.8h-0.2L68,39L68,39L68,39z M66.6,33.2H67v7.2h-0.4V33.2z M65.4,32.4
			v0.4l0,0v8.6c0,0.2-0.2,0.2-0.2,0V32v-0.2c0,0,0.2,0,0.2,0.2V32.4z M67.2,28v4.2l0,0L66.6,32c0.2-2.4,1-12-4.2-18
			c-0.6-0.8-1.4-1.4-2.2-2C64,14.6,67.2,19.4,67.2,28z M49.6,9C49.8,9,50,9,50,9s1,0,2.4,0.2c-1.6-0.2-3.2-0.2-4.8,0
			C48.4,9,49.2,9,49.6,9z M39.6,12c-0.8,0.6-1.4,1.2-2.2,2c-5.2,6.2-4.4,15.6-4.2,18l-0.6,0.2l0,0V28C32.8,19.4,36,14.6,39.6,12z
			 M31.8,38.4v-3.6l0,0c0-0.6,0.2-1,0.4-1.2h0.4v7C32.4,40,32,39.4,31.8,38.4z M33.2,40.4v-7.2h0.4v7.2H33.2L33.2,40.4z M34.6,33
			L34.6,33v-0.4V32c0,0,0-0.2,0.2-0.2c0,0,0,0,0,0.2v9.4c0,0.2-0.2,0.2-0.2,0V33z M36,37.4V32c0-0.6-0.6-1.2-1.2-1.2h-0.2
			c-0.2-3.4-0.4-11,4-16C41,11.6,45,10,50,10s9,1.6,11.6,4.6c4.2,5,4.2,12.8,4,16h-0.2c-0.6,0-1.2,0.6-1.2,1.2v5.6
			c0,1-0.2,2.2-0.6,3.8c-0.2,1-0.6,3-1.8,6.4c-0.8-0.4-2.2-0.4-3.6-0.4c-1.2,0-2.2,1-2.2,2.2s1,2.2,2.2,2.2c0.8,0,1.6,0,2.2,0
			L60,52.2c-2.4,6.8-9.6,7-10,7c-0.2,0-7.6-0.6-10-7c-1.8-4.4-2.8-8-3.4-11C36.2,39.6,36,38.4,36,37.4z M39,52.6
			c2.8,7,10.8,7.6,11,7.6v-0.6v0.6c0,0,8.4,0,11-7.6l0.4-0.8l-0.6-0.2c0.4,0,0.8-0.2,1.2-0.4l0.6,2.8c-1.4,3.8-11,8.8-12.6,9.6
			c-1.6-0.8-11-5.8-12.6-9.6l0.6-3.2C38.4,51.4,38.6,52,39,52.6z M41.6,71.8l-7.4-14c0.4-0.6,1.4-2.2,2-3.8l0,0v0.2
			c1.2,3.6,9,8.2,12,9.8C45.6,65.2,42.8,69.8,41.6,71.8z M58.4,71.8c-1.2-2-3.8-6.4-6.8-7.8c3.2-1.6,10.8-6.2,12-9.8V54l0,0
			c0.8,1.6,1.6,3.2,2,3.8L58.4,71.8z"/>
	</g>
	<path  d="M73.8,65"/>
</g>

        </symbol>
      </svg>
    