
      <svg xmlns="http://www.w3.org/2000/svg">
        <symbol id="s" viewBox="0 0 166.4 98.6">
          

<g>
	<path  d="M130.4,46.8c10.7,0,19.3-8.7,19.3-19.3s-8.7-19.3-19.3-19.3s-19.3,8.7-19.3,19.3S119.8,46.8,130.4,46.8z
		 M130.4,13.6c7.7,0,13.9,6.2,13.9,13.9s-6.2,13.9-13.9,13.9c-7.7,0-13.9-6.2-13.9-13.9S122.7,13.6,130.4,13.6z"/>
	<path  d="M166.4,84.2c0-21.5-13.4-34.8-34.8-34.8c-10.1,0-18.4,3-24.4,8.4c2.1,1.3,4.1,2.8,5.9,4.4
		c6.2-4.7,13.9-5.5,18.4-5.5c7.9,0,25.7,2.4,27.5,24h-33.3c0.8,2.3,1.5,4.7,1.9,7.2h38.7V84.2z"/>
	<path  d="M33.7,46.8c10.7,0,19.3-8.7,19.3-19.3S44.4,8.2,33.7,8.2s-19.3,8.7-19.3,19.3S23.1,46.8,33.7,46.8z M33.7,13.6
		c7.7,0,13.9,6.2,13.9,13.9s-6.2,13.9-13.9,13.9s-13.9-6.2-13.9-13.9S26.1,13.6,33.7,13.6z"/>
	<path  d="M43.1,80.6H7.3c1.8-21.6,19.6-24,27.5-24c4.8,0,13.4,0.9,19.7,6.6c1.8-1.7,3.6-3.2,5.6-4.6
		c-6-6-14.7-9.3-25.4-9.3C13.4,49.4,0,62.7,0,84.2v3.6h41.2C41.6,85.4,42.3,83,43.1,80.6z"/>
	<path  d="M83,48.3c13.3,0,24.1-10.8,24.1-24.1S96.3,0,83,0S58.9,10.8,58.9,24.1S69.7,48.3,83,48.3z M83,5.4
		c10.3,0,18.7,8.4,18.7,18.7S93.4,42.9,83,42.9s-18.7-8.4-18.7-18.7S72.7,5.4,83,5.4z"/>
	<path  d="M125.7,80.6c-2.6-7.2-7-13.5-12.7-18.5c-1.9-1.6-3.8-3.1-5.9-4.4c-6.7-4.2-14.5-6.6-22.7-6.6
		c-8.9,0-17.2,2.8-24.2,7.5c-2,1.4-3.9,2.9-5.6,4.6C49.5,68,45.5,74,43.1,80.6c-0.8,2.3-1.5,4.7-1.9,7.2c-0.4,2.4-0.7,4.8-0.7,7.2
		v3.6h87.8V95c0-2.4-0.3-4.8-0.7-7.2C127.2,85.4,126.6,83,125.7,80.6z M120.9,91.4h-73c1.9-18.3,17.8-33.1,36.5-33.1
		C103.1,58.3,119.1,73.2,120.9,91.4z"/>
</g>

        </symbol>
      </svg>
    