
      <svg xmlns="http://www.w3.org/2000/svg">
        <symbol id="s" viewBox="0 0 100 100">
          

<g>
	<path  d="M92.8,54.4l-2.7,1.9c0,0,0,0.2,0.2,0.5c0,0.2,0,0.2,0.2,0.2h0.2l2.7-1.9c1.2-0.7,1.7-1.7,1.7-2.7
		c0-1-0.7-1.9-1.7-2.7l-2.2-1.5c0-0.2-0.2-0.2-0.5,0c-0.2,0-0.2,0.2,0,0.5l1.9,1.2c0.7,0.7,1.2,1.5,1.2,2.2
		C94,53.2,93.8,53.9,92.8,54.4z"/>
	<path  d="M17.9,62.2c-0.2,0-0.2,0.2,0,0.5l2.2,1.5h0.2l0.2-0.2c0-0.1,0-0.2,0-0.2l-2.2-1.5
		C18.4,61.9,18.2,61.9,17.9,62.2z"/>
	<path  d="M63.7,74.5c0,0.2,0,0.2,0.2,0.2h0.2l5.1-3.4c0,0,0.2-0.2,0-0.5c-0.2-0.2-0.5-0.2-0.5-0.2l-5.1,3.4
		C63.7,74.1,63.5,74.3,63.7,74.5z"/>
	<path  d="M60.8,76.2l-7.3,4.8c-1.9,1.2-4.8,1.2-6.8,0c0-0.2-0.2-0.2-0.5,0c-0.2,0-0.2,0.2,0,0.5c1,0.7,2.4,1,3.9,1
		c1.5,0,2.9-0.2,3.9-1l7.3-4.8c0.2-0.2,0-0.5,0-0.5S61.1,76,60.8,76.2z"/>
	<path  d="M11.6,46.9h0.2l2.7-1.7c0,0,0.2-0.2,0-0.5c0,0-0.2-0.2-0.5,0l-2.7,1.7c0,0-0.2,0.2,0,0.2
		C11.4,46.9,11.4,46.9,11.6,46.9z"/>
	<path  d="M6.1,52.3c0-1,0.2-1.7,1.2-2.2l2.9-1.9c0,0,0.2-0.2,0-0.5c0,0-0.2-0.2-0.5,0l-2.9,2.4
		c-1.2,0.7-1.7,1.7-1.7,2.7c0,1,0.7,1.9,1.7,2.7l9.2,6.1h0.2l0.2-0.2c0-0.2,0-0.5,0-0.7l-9.2-6.1C6.5,53.7,6.1,53,6.1,52.3z"/>
	<path  d="M85.8,45.2l2.7,2.2h0.2l0.2-0.2c0.2,0,0.2-0.2,0-0.5L86,44.7c0-0.2-0.2-0.2-0.5,0C85.5,45,85.5,45.2,85.8,45.2
		z"/>
	<path  d="M99.6,53.9v-1.5v-0.2L74.9,35.5c-0.2,0-0.2,0-0.5,0l-7.3,4.8L49.9,52L32.7,40.4l-7.3-4.8c-0.2,0-0.2,0-0.5,0
		L0.2,52.3c-0.2,0-0.2,0-0.2,0.2v1.5l0.2,0.2l49.7,33.2h0.2h0.2l49.4-33.2C100.1,54.2,100.1,53.9,99.6,53.9z M25.4,36.3l6.8,4.6v23
		l-7,4.6l-24-16.2L25.4,36.3z M49.7,86.4L1,53.7v-0.5L24.5,69l25.2,17V86.4z M49.9,85L26.2,69l3.4-2.2l3.2-2.2h34.9l6.5,4.4L49.9,85
		z M74.9,68.5l-2.4-1.7l-4.4-2.9v-23l7-4.6l24,16.2L74.9,68.5z"/>
	<path  d="M37.8,23.4H38l7-4.6c0,0,0.2-0.2,0-0.5c0,0-0.2-0.2-0.5,0l-7,4.6c-0.2,0-0.2,0.2,0,0.2
		C37.6,23.4,37.6,23.4,37.8,23.4z"/>
	<path  d="M25.2,29.2C25,29.5,25,29.5,25,29.7v1.2l0.2,0.2l24.7,16.7h0.2h0.2l24.7-16.7c0.2,0,0.2,0,0.2-0.2v-1.5
		l-0.2-0.2L50.4,12.5c-0.2,0-0.2,0-0.5,0L25.2,29.2z M49.7,47.2l-24-16.2v-0.5l6.5,4.4l17.4,11.6V47.2z M74.2,29.7l-6.8,4.4H32.7
		l-6.5-4.4l24-16.2L74.2,29.7z"/>
	<path  d="M46.8,17.6c1.9-1.2,4.8-1.2,6.8,0h0.2l0.2-0.2c0.2,0,0.2-0.2,0-0.5c-2.2-1.5-5.6-1.5-7.8,0
		c-0.2,0.2-0.2,0.5,0,0.7C46.3,17.6,46.5,17.8,46.8,17.6z"/>
</g>

        </symbol>
      </svg>
    