
      <svg xmlns="http://www.w3.org/2000/svg">
        <symbol id="s" viewBox="0 0 100 100">
          

<g>
	<path  d="M49.7,46.9l5.4-7.2l-6.2-6.2l-7.2,5.4c-1.8-1-3.6-1.8-5.6-2.2l-1.4-9h-8.6l-1.4,9c-2,0.6-3.8,1.2-5.6,2.4
		l-7-5.4l-6.2,6.2l5.4,7.2c-1,1.8-1.8,3.6-2.4,5.6L0,54v8.6L9,64c0.6,2,1.2,3.8,2.4,5.6L6,76.8l6,6l7.2-5.4c1.8,1,3.6,1.8,5.6,2.4
		l1.4,9h8.6l1.4-9c2-0.6,3.8-1.2,5.6-2.4l7.2,5.4l6.2-6.2l-5.4-7.2c1-1.8,1.8-3.6,2.4-5.6l9-1.4V54l-9.2-1.4
		C51.5,50.6,50.7,48.7,49.7,46.9z M58.7,60.6l-8.6,1.2l-0.2,0.8c-0.4,2.2-1.4,4.4-2.6,6.4l-0.4,0.6l5.2,7L48.7,80l-6.8-5.2l-0.6,0.4
		c-2,1.2-4,2.2-6.4,2.6L34.1,78l-1.2,8.6h-4.8L26.9,78l-0.8-0.2c-2.2-0.4-4.4-1.4-6.2-2.6l-0.6-0.4L12.4,80L9,76.6l5-7L13.6,69
		c-1.2-2-2.2-4-2.6-6.4L10.8,62l-8.4-1.2V56l8.4-1.2L11,54c0.4-2.2,1.4-4.4,2.6-6.2l0.4-0.8l-5.2-7l3.4-3.4l7,5.2l0.6-0.4
		c2-1.2,4-2.2,6.4-2.6l0.8-0.2l1.2-8.6h4.8l1.2,8.6l0.8,0.2c2.2,0.4,4.4,1.4,6.4,2.6l0.6,0.4l6.8-5.2l3.2,3.4l-5.2,6.8l0.4,0.6
		c1.2,2,2.2,4,2.6,6.2l0.2,0.8l8.4,1.2L58.7,60.6L58.7,60.6z"/>
	<path  d="M30.5,50.8c-4.2,0-7.6,3.4-7.6,7.6s3.4,7.6,7.6,7.6s7.6-3.4,7.6-7.6C38.1,54.2,34.7,50.8,30.5,50.8z
		 M30.5,63.6c-3,0-5.2-2.4-5.2-5.2s2.4-5.2,5.2-5.2c2.8,0,5.2,2.4,5.2,5.2S33.5,63.6,30.5,63.6z"/>
	<path  d="M30.5,54.8c-1.8,0-3.4,1.6-3.4,3.4c0,1.8,1.6,3.4,3.4,3.4c1.8,0,3.4-1.6,3.4-3.4S32.3,54.8,30.5,54.8z
		 M30.5,59.4c-0.6,0-1.2-0.6-1.2-1.2c0-0.6,0.6-1.2,1.2-1.2c0.6,0,1.2,0.6,1.2,1.2C31.7,59,31.1,59.4,30.5,59.4z"/>
	<path  d="M93.4,36.5c0-1.6-0.2-3.2-0.6-4.8l5.8-4.6l-3.8-6.4l-7,2.8c-1.2-1.2-2.4-2-3.8-2.8l0.8-7.4l-7.2-2l-3,6.8
		c-1.6,0-3.2,0.2-4.8,0.6l-4.6-5.8l-6.4,3.8l2.8,6.8c-1.2,1.2-2,2.4-2.8,3.8l-7.4-0.8l-2,7.2l6.8,3c0,1.6,0.2,3.2,0.6,4.8l-5.8,4.6
		l3.8,6.4l6.8-2.8c1.2,1.2,2.4,2,3.8,2.8L64.5,60l7.2,2l3-6.8c1.6,0,3.2-0.2,4.8-0.6l4.6,5.8l6.4-3.8l-2.8-7c1.2-1.2,2-2.4,2.8-3.8
		l7.4,0.8l2-7.2L93.4,36.5z M89.2,43.9c-0.8,1.6-2,3.2-3.4,4.4l-0.6,0.6l2.6,6.6l-3,1.8l-4.4-5.6L79.8,52c-1.8,0.6-3.6,0.8-5.4,0.8
		h-0.8l-2.8,6.4l-3.4-1l0.8-7l-0.6-0.4c-1.6-0.8-3.2-2-4.4-3.4l-0.6-0.6l-6.6,2.6l-1.8-3l5.4-4.4l-0.2-0.8c-0.6-1.8-0.8-3.6-0.8-5.4
		v-0.8l-6.4-2.8l1-3.4l7,0.8l0.4-0.6c0.8-1.6,2-3.2,3.4-4.4l0.6-0.6l-2.6-6.6l3-1.8l4.4,5.6l0.8-0.2c1.8-0.6,3.6-0.8,5.4-0.8h0.8
		l2.8-6.2l3.4,1l-0.8,7l0.6,0.4c1.6,0.8,3.2,2,4.4,3.4l0.6,0.6l6.6-2.6l1.8,3l-5.6,4.2l0.2,0.8c0.6,1.8,0.8,3.6,0.8,5.4v0.8l6.4,2.8
		l-1,3.4l-7-0.8L89.2,43.9z"/>
	<path  d="M77,29.1c-0.6-0.2-1.2-0.2-2-0.2c-3.4,0-6.4,2.2-7.2,5.6c-1,4,1.4,8.2,5.4,9.2c0.6,0.2,1.2,0.2,2,0.2
		c3.4,0,6.4-2.2,7.2-5.6C83.4,34.3,81,30.3,77,29.1z M80,37.9c-0.8,2.8-3.6,4.4-6.4,3.8c-2.8-0.8-4.4-3.6-3.8-6.4c0.6-2.4,2.8-4,5-4
		c0.4,0,1,0,1.4,0.2C79.2,32.1,80.8,34.9,80,37.9z"/>
	<path  d="M75.8,33.1c-1.8-0.4-3.6,0.6-4.2,2.4c-0.4,1.8,0.6,3.6,2.4,4.2c0.2,0,0.6,0.2,0.8,0.2c1.6,0,2.8-1,3.2-2.6
		C78.8,35.5,77.6,33.7,75.8,33.1z M76,36.7c-0.2,0.6-0.8,1-1.4,0.8s-1-0.8-0.8-1.4c0.2-0.4,0.6-0.8,1-0.8h0.2
		C75.8,35.5,76.2,36.1,76,36.7z"/>
</g>

        </symbol>
      </svg>
    