
      <svg xmlns="http://www.w3.org/2000/svg">
        <symbol id="s" viewBox="0 0 100 100">
          

<g>
	<path  d="M68.2,32.2c-1,0-2,0.4-2.8,1.2L40.2,58.6l-6.4-6.4C33,51.4,32.2,51,31,51s-2,0.4-2.8,1.2c-1.4,1.4-1.4,4,0,5.4
		l9.2,9.2c0.8,0.8,1.6,1.2,2.8,1.2s2-0.4,2.8-1.2l28-28c0.6-0.8,1-1.8,1-2.8s-0.4-2-1.2-2.8C70.2,32.6,69.2,32.2,68.2,32.2z"/>
	<path  d="M100,50c0-0.2-0.2-0.6-0.4-0.8l-7.6-6l5.4-8c0.2-0.2,0.2-0.6,0.2-0.8S97.2,34,97,34l-9-3.4l2.6-9.2
		c0-0.2,0-0.6-0.2-0.8c-0.2-0.2-0.4-0.4-0.6-0.4L80,19.8l-0.4-9.6c0-0.2-0.2-0.6-0.4-0.6c-0.2-0.2-0.6-0.2-0.8-0.2l-9,2.6L66,3
		c0-0.2-0.4-0.4-0.6-0.6c-0.2,0-0.6,0-0.8,0.2l-8,5.4l-6-7.6C50.6,0.2,50.2,0,50,0s-0.6,0.2-0.8,0.4l-6,7.6l-8-5.4
		c-0.2-0.2-0.6-0.2-0.8-0.2S34,2.6,33.8,3l-3.2,9l-9.2-2.6c-0.2,0-0.6,0-0.8,0.2c-0.2,0.2-0.4,0.4-0.4,0.6l-0.4,9.6l-9.6,0.4
		c-0.2,0-0.6,0.2-0.6,0.4c-0.2,0.2-0.2,0.6-0.2,0.8l2.6,9.2L3,34c-0.2,0-0.4,0.2-0.6,0.6s0,0.6,0.2,0.8l5.4,8l-7.6,6
		C0.2,49.4,0,49.8,0,50s0.2,0.6,0.4,0.8l7.6,6l-5.4,8c-0.2,0.2-0.2,0.6-0.2,0.8c0,0.2,0.2,0.4,0.6,0.6l9,3.2l-2.6,9.2
		c0,0.2,0,0.6,0.2,0.8c0.2,0.2,0.4,0.4,0.6,0.4l9.6,0.4l0.4,9.6c0,0.2,0.2,0.6,0.4,0.6c0.2,0.2,0.6,0.2,0.8,0.2l9.2-2.6l3.4,9
		c0,0.2,0.2,0.4,0.6,0.6c0.2,0,0.6,0,0.8-0.2l8-5.4l6,7.6c0.2,0.2,0.4,0.4,0.8,0.4s0.6-0.2,0.8-0.4l6-7.6l8,5.4
		c0.2,0.2,0.6,0.2,0.8,0.2c0.2,0,0.4-0.2,0.6-0.6l3.4-9l9.2,2.6c0.2,0,0.6,0,0.8-0.2c0.2-0.2,0.4-0.4,0.4-0.6l0.4-9.6l9.6-0.4
		c0.2,0,0.6-0.2,0.6-0.4c0.2-0.2,0.2-0.6,0.2-0.8l-3-9.2l9-3.4c0.2,0,0.4-0.4,0.6-0.6c0-0.2,0-0.6-0.2-0.8l-5.4-8l7.6-6
		C99.8,50.6,100,50.2,100,50z M90.2,55.8C89.8,56,89.8,56.6,90,57l5.2,7.8L86.6,68c-0.4,0.2-0.6,0.6-0.6,1l2.6,9l-9.4,0.4
		c-0.4,0-0.8,0.4-0.8,0.8L78,88.6L69,86c-0.4-0.2-1,0.2-1,0.6l-3.2,8.8L57,90.2c-0.4-0.2-1-0.2-1.2,0.2L50,97.6l-5.8-7.4
		C44,90,43.8,90,43.6,90s-0.4,0-0.4,0.2l-7.8,5.2L32,86.6c-0.2-0.4-0.6-0.6-1-0.6l-9,2.6l-0.4-9.4c0-0.4-0.4-0.8-0.8-0.8L11.4,78
		l2.6-9c0.2-0.4-0.2-1-0.6-1l-8.8-3.2L9.8,57c0.4-0.4,0.2-1,0-1.2L2.4,50l7.4-5.8c0.2-0.2,0.4-0.8,0-1.2l-5.2-7.8l8.8-3.2
		c0.4,0,0.8-0.6,0.6-1l-2.6-9l9.4-0.4c0.4,0,0.8-0.4,0.8-0.8l0.4-9.4l9,2.6c0.4,0.2,1-0.2,1-0.6l3.2-8.8L43,9.8c0.4,0.4,1,0.2,1.2,0
		L50,2.4l5.8,7.4c0.2,0.2,0.8,0.4,1.2,0l7.8-5.2l3.2,8.8c0.2,0.4,0.6,0.6,1,0.6l9-2.6l0.4,9.4c0,0.4,0.4,0.8,0.8,0.8l9.4,0.4L86,31
		c-0.2,0.4,0.2,1,0.6,1l8.8,3.2L90.2,43c-0.2,0.4-0.2,1,0.2,1.2l7.4,5.8L90.2,55.8z"/>
	<path  d="M50.2,12.4c-20.8,0-37.8,17-37.8,37.8S29.4,88,50.2,88S88,71,88,50.2S71,12.4,50.2,12.4z M50.2,84.4
		C31.4,84.4,16,69,16,50.2S31.4,16,50.2,16s34.2,15.4,34.2,34.2S69,84.4,50.2,84.4z"/>
</g>

        </symbol>
      </svg>
    