
      <svg xmlns="http://www.w3.org/2000/svg">
        <symbol id="s" viewBox="0 0 100 100">
          

<g>
	<path  d="M98.4,72.8C96,71.4,54,47.7,51.8,46.5l-0.2-0.2c-1.4-0.8-2.4-1.4-3.6-0.4c0,0-3,2.2-6.8,4.8
		c-1-1-1.8-2.2-2-3.8c-0.2-1.2,0.2-2.2,0.4-3.2c0.4-1.6,0.8-3.2,0-5.2c-0.8-2-2.8-3.4-4.4-4.2c-0.2,0-0.6-0.2-0.8-0.2
		c0-0.4,0-1-0.6-1.4c-0.6-0.6-4-1.8-4.4-2l0,0c-2.2-1-26.3-9.8-29.1-5.4c-0.4,0.6-0.6,1.4-0.2,2c0.8,2.2,4.4,4,10.4,6.2
		c6.2,2.4,15.1,4.4,16.1,4.6l0,0h0.2c0.2,0,4.2,1,5.2,1l0,0c0.8,0,1.4-0.8,1.8-1.2c1.8,0.8,2.6,1.6,3,3.2c0.2,1,0,1.6-0.4,2.6
		c-0.4,1-0.8,2.2-0.8,4c0,2.6,1.4,4.6,2.6,5.8c-3.6,2.6-8,5.6-8.8,6.2c-1,0.8-1.4,1.6-1.2,2.2c0.2,0.6,0.6,1,1.4,1.2
		c2,0.6,66.7,12.9,67.3,13.1c0.2,0,0.6,0,0.8,0c1,0,1.8-0.4,2.2-1C99.8,74.2,99.4,73.4,98.4,72.8z M25.1,35.9
		c-4.6-1.2-15.1-4-22.3-7.8v-0.2c7.4,3.8,17.7,6.6,22.3,7.8c0.4,0.2,0.8,0.2,1,0.2v0.2C25.9,36.1,25.5,35.9,25.1,35.9z M26.3,34.1
		c-0.2,0.6-0.2,1.2-0.2,1.6c-0.2,0-0.6-0.2-1-0.2c-4.6-1.2-14.9-3.8-22.3-7.8c0.2-0.8,0.8-2,2-3.4c6.6,0.4,19.3,4.6,23.9,6.4
		C27.9,31.1,26.9,31.9,26.3,34.1z M0.6,26.8c-0.2-0.6-0.2-1,0.2-1.6c0.4-0.6,1.6-1,3.2-1c-1,1.2-1.6,2.4-1.8,3.2l0,0c0,0,0,0,0,0.2
		s0,0.4,0,0.4l0,0v0.2v0.2C1.4,27.9,0.8,27.4,0.6,26.8z M2.8,28.9v-0.2c7.4,3.8,17.7,6.6,22.3,7.8c0.4,0.2,0.8,0.2,1.2,0.2
		c0,0.2,0,0.2,0,0.4c-2-0.4-10.2-2.4-15.5-4.6C7.8,31.5,4.8,30.3,2.8,28.9z M99,74.8c-0.2,0.4-1,0.8-2.2,0.6
		C93,74.8,30.9,62.6,29.7,62.4c-0.4-0.2-1-0.4-1-0.8c0-0.4,0.4-1.2,1-1.8c0.8-0.6,5.2-3.8,8.8-6.4c0.4,0.4,0.8,0.8,0.8,0.8h0.2
		c0,0,0.2,0,0.2-0.2s0-0.4,0-0.4s-3.4-2.6-3.6-6.6c0-1.6,0.4-2.8,0.6-3.8c0.4-1,0.6-1.8,0.4-3c-0.6-2-1.8-2.8-4.4-4
		c-0.2,0-0.4,0-0.4,0.2s0,0.4,0.2,0.4s0.2,0.2,0.4,0.2c-0.2,0.4-0.8,0.8-1.2,0.8c-0.8,0-4.2-0.8-4.8-1v-0.2c0.8,0.2,3,0.8,4.4,0.8
		c0.2,0,0.4,0,0.6,0c0.2,0,0.2-0.2,0.2-0.4s-0.2-0.2-0.4-0.2c-1,0.2-3.8-0.4-4.8-0.8v-0.2c0.8,0.2,3.2,0.8,4.4,0.8
		c0.2,0,0.4,0,0.6,0c0,0,0.2,0,0.2-0.2c0,0,0-0.2-0.2,0c-1,0.2-4.2-0.6-5-0.8c0-0.4,0-1,0.2-1.6c0.6-2.4,2-3,2.4-3.2
		c1,0.4,3.6,1.6,4.2,2c0.4,0.2,0.4,0.6,0.2,1c-0.2,0-0.4,0-0.4,0c-0.2,0.2-0.4,0.2-0.6,0.4l0,0c-0.2,0.4-0.4,0.6-0.4,0.6
		c0,0.2,0,0.2,0.2,0.4c0.2,0,0.4,0,0.4-0.2c0,0,0,0,0-0.2c1.6,0.4,4.2,1.6,5.2,3.4c0.6,1,0.6,1.8,0.6,2.6c0,0.2,0.2,0.2,0.2,0.2l0,0
		c0.2,0,0.2,0,0.2-0.2c0-1-0.2-2-0.6-3c-1-2-3.4-3.2-5-3.6c0.2,0,0.6,0,1.4,0.4c1.6,0.6,3.4,2,4,3.8c0.8,2,0.4,3.4,0,5
		c-0.2,1-0.6,2.2-0.4,3.4C39.1,50.5,42,52,44,53c0.2,0.2,0.6,0.2,0.8,0.4c1.2,0.6,2.4,1.4,2.6,2c0,0.2,0,0.2,0,0.4s0,0.4,0,0.4
		s0,0,0.2,0c0,0,0.2,0,0.2-0.2c0.2-0.2,0.2-0.6,0.2-0.8c-0.2-0.8-1.2-1.6-2.8-2.4c-0.2-0.2-0.4-0.2-0.8-0.4
		c-0.8-0.4-1.6-0.8-2.6-1.6c3.6-2.6,6.6-4.6,6.6-4.6c0.8-0.6,1.6-0.4,3,0.6l0.2,0.2c2.2,1.2,44,24.7,46.4,26.1
		C98.8,73.8,99.2,74.2,99,74.8z"/>
	<path  d="M45,55.6c0.2,0,0.2,0,0.2-0.2s0-0.4-0.2-0.4c-7.6-1.6-8.2-7.8-8.2-8s-0.2-0.2-0.4-0.2s-0.2,0.2-0.2,0.4
		C36.5,47.3,36.9,54,45,55.6L45,55.6z"/>
	<path  d="M45.2,55L45.2,55C45.4,55,45.4,55,45.2,55c0.2-0.2,0.2-0.2,0-0.2c-4.8-1.2-6.8-4-7.6-6c0,0-0.2-0.2-0.2,0
		c0,0-0.2,0.2,0,0.2C38.5,51.1,40.4,53.8,45.2,55z"/>
	<path  d="M29.9,61.8c2,0.6,66.7,12.9,67.3,13.1v-0.6c-3.8-0.6-65.9-12.7-67.1-12.9L29.9,61.8z"/>
</g>

        </symbol>
      </svg>
    