
      <svg xmlns="http://www.w3.org/2000/svg">
        <symbol id="s" viewBox="0 0 100 100">
          

<g>
	<path  d="M99.1,96.2L72.7,69.7c14.8-16.4,14.4-41.7-1.2-57.5C63.4,4.4,53,0,41.8,0c-11,0-21.4,4.4-29.5,12.2
		c-16.2,16.2-16.2,42.7,0,58.9c7.8,7.8,18.4,12.2,29.5,12.2c10.2,0,19.8-3.6,27.5-10.4l26.5,26.5c0.4,0.4,1,0.6,1.6,0.6
		s1.2-0.2,1.6-0.6C100.1,98.6,100.1,97.2,99.1,96.2z M15.7,67.9c-14.4-14.4-14.4-37.9,0-52.5C22.8,8.4,32,4.6,42,4.6S61,8.4,68,15.4
		c14.4,14.4,14.4,37.9,0,52.5c-7,7-16.2,10.8-26.3,10.8S22.8,75,15.7,67.9z"/>
	<path  d="M55.8,39.5H28c-1.2,0-2.4,1-2.4,2.4c0,1.2,1,2.4,2.4,2.4h27.9c1.2,0,2.4-1,2.4-2.4C58,40.5,57,39.5,55.8,39.5z
		"/>
</g>

        </symbol>
      </svg>
    