<?xml version="1.0" encoding="utf-8"?>
<!-- Generator: Adobe Illustrator 27.6.1, SVG Export Plug-In . SVG Version: 6.00 Build 0)  -->
<svg version="1.1" id="Layer_1" xmlns="http://www.w3.org/2000/svg" xmlns:xlink="http://www.w3.org/1999/xlink" x="0px" y="0px"
	 viewBox="0 0 100 100" style="enable-background:new 0 0 100 100;" xml:space="preserve">
<style type="text/css">
	.st0{fill:url(#SVGID_1_);}
	.st1{fill:url(#SVGID_00000001634551090064451840000014438006947742485181_);}
	.st2{opacity:0.3;fill:#FFFFFF;enable-background:new    ;}
	.st3{fill:#FFFFFF;}
	.st4{font-family:'MyriadPro-Regular';}
	.st5{font-size:19.9994px;}
	.st6{opacity:0.15;fill-rule:evenodd;clip-rule:evenodd;fill:#231F20;enable-background:new    ;}
</style>
<g>
	<g>
		
			<linearGradient id="SVGID_1_" gradientUnits="userSpaceOnUse" x1="50.0004" y1="480.0008" x2="50.0004" y2="380" gradientTransform="matrix(1 0 0 1 0 -380)">
			<stop  offset="0" style="stop-color:#DBDCDD"/>
			<stop  offset="0.1536" style="stop-color:#E1E2E2"/>
			<stop  offset="0.584" style="stop-color:#EDEDEE"/>
			<stop  offset="1" style="stop-color:#F2F2F2"/>
		</linearGradient>
		<polygon class="st0" points="90,100 10,100 10,0 66,0 90,24 		"/>
		
			<linearGradient id="SVGID_00000047036665454606506850000002031378749172070811_" gradientUnits="userSpaceOnUse" x1="50.0004" y1="412.0002" x2="50.0004" y2="380" gradientTransform="matrix(1 0 0 1 0 -380)">
			<stop  offset="0" style="stop-color:#C32126"/>
			<stop  offset="1" style="stop-color:#EB2227"/>
		</linearGradient>
		<polygon style="fill:url(#SVGID_00000047036665454606506850000002031378749172070811_);" points="66,0 10,0 10,32 90,32 90,24 		
			"/>
		<polygon class="st2" points="66,24 90,24 66,0 		"/>
		<text transform="matrix(1 0 0 1 14.7992 24.0063)" class="st3 st4 st5">PDF</text>
	</g>
	<path class="st6" d="M74.6,76.4C76.2,73,69.4,71.8,60,73c-1.6-1-3.2-2-4.6-3.2c-3.6-3-6.2-7.8-7.8-12.8c0.8-4.2,0.8-7.6,0.8-11.4
		c-0.4,1.8-0.6,4.6-1.6,8.8c-1.2-4.8-1.6-9.2-0.8-11.6c0.2-0.4,0.6-1,0.8-1.2c0.8,0.4,1.6,1.2,1.8,3c0.6-3.4-1-3.2-1.4-3.2h-1
		c-0.6,0-1,0.4-1.4,1.4c-0.8,3.2-0.4,8.8,1.4,14.4c-1,3.8-2.8,8.4-5.4,13.8c-6.6,13.4-11.6,20.2-15.2,20.2c-0.4-1.6,3.2-6.6,8-10.4
		c-8.2,4.4-9.8,9.2-9,10.2l1.2,0.6c2.4,1.2,6.4-2,12.8-13c6-2.2,14-3.8,20.8-4.4c6.8,3.6,14.6,5,15,2.6c-1.8,0.8-6.8-0.4-12-2.8
		C69.4,73.6,74.8,74.2,74.6,76.4z M38.6,78.6c1.2-2,2.2-4,3.6-6.4c2.6-4.8,4-8.8,5-12.4c1.6,4.2,4,8.2,7.2,11c1,0.8,2,1.6,3.2,2.4
		C51.4,74.2,44.6,76,38.6,78.6z"/>
</g>
</svg>
